<?xml version="1.0" standalone="no"?>
<!DOCTYPE svg PUBLIC "-//W3C//DTD SVG 20010904//EN"
 "http://www.w3.org/TR/2001/REC-SVG-20010904/DTD/svg10.dtd">
<svg version="1.0" xmlns="http://www.w3.org/2000/svg"
 width="564.000000pt" height="824.000000pt" viewBox="0 0 564.000000 824.000000"
 preserveAspectRatio="xMidYMid meet">

<g transform="translate(0.000000,824.000000) scale(0.100000,-0.100000)"
fill="#000000" stroke="none">
<path d="M1610 7645 c-31 -17 -44 -19 -34 -3 5 7 3 8 -6 3 -7 -4 -25 -36 -41
-71 -38 -83 -38 -135 0 -219 l29 -64 87 4 c64 4 94 1 115 -10 35 -18 118 -20
157 -3 15 6 31 12 36 13 4 2 10 4 15 5 4 1 11 2 15 1 12 -2 44 79 51 129 8 58
-4 102 -29 106 -11 2 -36 6 -55 10 -19 4 -42 8 -50 8 -8 0 -30 17 -48 37 -18
20 -48 44 -66 53 -42 20 -142 20 -176 1z m219 -70 c17 -8 38 -34 51 -60 22
-45 22 -47 5 -91 -50 -131 -238 -99 -238 41 0 94 98 154 182 110z"/>
<path d="M2978 7628 l-28 -10 0 -182 0 -183 30 -1 30 -1 0 195 c0 107 -1 194
-2 193 -2 0 -15 -5 -30 -11z"/>
<path d="M2252 7600 c-101 -62 -94 -272 11 -323 41 -21 117 -24 160 -8 22 9
28 7 37 -9 10 -20 12 -20 35 -3 21 17 22 19 7 36 -13 15 -14 20 -1 44 9 16 14
56 14 107 0 69 -3 86 -24 115 -13 18 -39 40 -57 47 -50 21 -142 18 -182 -6z
m159 -40 c34 -19 52 -68 47 -131 -5 -69 -11 -78 -36 -55 -20 18 -47 13 -56 -9
-3 -8 4 -21 14 -28 25 -18 16 -27 -27 -27 -76 0 -113 43 -113 131 0 85 36 129
107 129 24 0 53 -5 64 -10z"/>
<path d="M2590 7436 l0 -185 30 1 30 1 0 69 0 68 39 0 c37 0 41 -3 82 -67 38
-58 49 -68 77 -71 17 -2 32 -1 32 2 0 3 -20 36 -44 73 l-43 67 31 15 c37 19
56 53 56 101 0 81 -51 110 -190 110 l-100 0 0 -184z m208 118 c15 -10 22 -25
22 -49 0 -48 -29 -65 -107 -65 l-63 0 0 65 0 65 63 0 c40 0 70 -5 85 -16z"/>
<path d="M3071 7475 c-28 -35 -51 -69 -51 -75 0 -6 25 -42 55 -81 47 -57 61
-69 85 -69 17 0 30 3 30 6 0 4 -22 35 -50 70 -27 35 -50 67 -50 72 0 5 23 39
50 76 l51 66 -35 0 c-30 0 -40 -7 -85 -65z"/>
<path d="M3242 7433 c5 -118 15 -145 61 -164 35 -15 122 -14 160 0 l27 11 0
130 0 130 -30 0 -30 0 0 -115 0 -115 -45 0 c-72 0 -85 20 -85 135 l0 95 -31 0
-32 0 5 -107z"/>
<path d="M2722 6931 c-8 -5 -12 -16 -10 -25 2 -12 6 -10 15 9 6 14 10 25 10
25 -1 0 -8 -4 -15 -9z"/>
<path d="M3631 6883 c1 -80 17 -98 18 -20 1 38 -3 67 -9 67 -5 0 -10 -21 -9
-47z"/>
<path d="M1614 6898 c-5 -17 0 -27 22 -45 16 -13 35 -28 42 -34 9 -7 9 -15 1
-31 -8 -16 -17 -19 -40 -14 -19 3 -28 2 -24 -4 10 -15 52 -12 69 6 23 22 20
40 -11 63 -48 36 -54 42 -50 54 2 7 18 12 35 12 18 0 32 3 32 7 0 5 -15 8 -34
8 -27 0 -36 -5 -42 -22z"/>
<path d="M2172 6913 c26 -4 27 -6 31 -81 l3 -77 2 77 c2 75 2 77 30 81 15 2 0
4 -33 4 -33 0 -48 -2 -33 -4z"/>
<path d="M3052 6843 c3 -76 4 -78 30 -81 39 -5 68 14 68 44 0 13 -7 27 -15 30
-12 5 -13 10 -4 20 6 8 8 25 5 39 -6 22 -12 25 -47 25 l-40 0 3 -77z m74 52
c8 -20 -13 -45 -37 -45 -14 0 -19 7 -19 30 0 25 4 30 25 30 14 0 28 -7 31 -15z
m5 -71 c18 -21 0 -48 -35 -52 -24 -3 -26 0 -26 32 0 31 3 36 24 36 13 0 29 -7
37 -16z"/>
<path d="M1743 6868 c-44 -58 -3 -133 54 -99 15 10 14 10 -9 5 -21 -5 -30 -1
-43 19 -13 20 -14 29 -3 52 10 23 16 26 42 21 22 -4 27 -3 16 4 -21 13 -46 12
-57 -2z"/>
<path d="M1846 6872 c-3 -4 8 -6 25 -4 23 3 29 1 29 -15 0 -13 -11 -22 -32
-28 -61 -18 -43 -74 18 -59 23 6 25 10 22 58 -3 47 -5 51 -30 54 -14 2 -29 -1
-32 -6z m54 -71 c0 -20 -32 -37 -50 -26 -14 9 -13 32 3 38 28 12 47 7 47 -12z"/>
<path d="M1963 6820 c0 -52 1 -56 4 -18 7 87 63 95 63 8 0 -28 5 -50 11 -50 6
0 9 20 7 51 -3 60 -24 82 -57 62 -15 -10 -21 -10 -24 0 -3 7 -5 -17 -4 -53z"/>
<path d="M2288 6866 c-13 -10 -18 -26 -17 -62 1 -31 3 -38 6 -19 7 60 14 76
36 85 12 5 15 9 7 9 -8 0 -23 -6 -32 -13z"/>
<path d="M2385 6873 c19 -5 35 -20 35 -35 0 -4 -10 -9 -22 -11 l-23 -4 23 -2
c25 -1 29 -23 7 -41 -21 -18 -48 -4 -42 21 4 16 3 18 -8 9 -15 -13 -10 -39 9
-42 64 -8 66 -7 66 48 0 53 -10 66 -48 63 -13 -1 -12 -3 3 -6z"/>
<path d="M2472 6820 c1 -64 1 -64 7 -17 7 49 23 69 51 64 10 -1 17 -19 21 -57
l6 -55 1 51 c2 62 -15 83 -53 66 -18 -8 -25 -8 -29 1 -2 7 -4 -17 -4 -53z"/>
<path d="M2607 6873 c-16 -16 -5 -44 24 -58 35 -19 33 -40 -4 -40 -14 1 -23
-3 -21 -7 8 -12 38 -10 52 4 20 20 14 37 -19 53 -34 18 -34 36 2 46 l24 7 -26
1 c-14 1 -29 -2 -32 -6z"/>
<path d="M2699 6871 c12 -8 51 -4 51 5 0 2 -15 4 -32 4 -23 0 -29 -3 -19 -9z"/>
<path d="M2782 6868 c-7 -7 -12 -17 -12 -22 0 -6 5 -3 11 7 14 23 46 22 59 -3
10 -19 8 -20 -36 -20 -45 0 -46 0 -39 -27 3 -15 12 -31 18 -35 16 -10 55 -10
61 1 3 4 -6 6 -21 3 -18 -3 -30 1 -40 13 -21 30 -16 35 32 35 49 0 59 15 29
44 -18 19 -45 21 -62 4z"/>
<path d="M2901 6845 c1 -28 1 -28 8 -6 3 13 15 28 26 32 17 6 15 7 -7 6 -24
-1 -28 -5 -27 -32z"/>
<path d="M3202 6872 c-22 -14 -26 -76 -7 -95 17 -17 75 -24 75 -8 0 4 -12 6
-27 3 -18 -3 -30 1 -40 13 -21 30 -16 35 33 35 42 0 45 1 38 23 -11 35 -42 47
-72 29z m58 -22 c10 -18 8 -20 -30 -20 -38 0 -40 2 -30 20 6 11 19 20 30 20
11 0 24 -9 30 -20z"/>
<path d="M3312 6820 c0 -36 3 -51 5 -35 7 60 14 76 36 85 16 6 17 9 5 9 -9 1
-20 -4 -24 -10 -4 -8 -9 -7 -15 2 -5 9 -8 -11 -7 -51z"/>
<path d="M3408 6869 c-26 -15 -25 -85 1 -99 24 -12 58 -13 65 -1 3 4 -6 6 -19
3 -27 -5 -55 12 -55 34 0 10 13 14 40 14 32 0 40 4 40 18 0 37 -36 52 -72 31z
m60 -21 c3 -15 -4 -18 -32 -18 -38 0 -44 8 -24 28 17 17 52 11 56 -10z"/>
<path d="M3527 6873 c-15 -14 -6 -44 17 -55 14 -6 27 -20 29 -32 4 -20 4 -20
6 2 1 15 -7 26 -24 34 -34 15 -35 52 0 46 13 -3 22 -1 19 3 -6 11 -38 12 -47
2z"/>
<path d="M2712 6825 c0 -16 2 -22 5 -12 2 9 2 23 0 30 -3 6 -5 -1 -5 -18z"/>
<path d="M2093 6823 c9 -2 23 -2 30 0 6 3 -1 5 -18 5 -16 0 -22 -2 -12 -5z"/>
<path d="M2973 6823 c9 -2 25 -2 35 0 9 3 1 5 -18 5 -19 0 -27 -2 -17 -5z"/>
<path d="M2901 6774 c0 -11 3 -14 6 -6 3 7 2 16 -1 19 -3 4 -6 -2 -5 -13z"/>
<path d="M3518 6768 c6 -6 18 -8 28 -6 14 3 12 5 -9 10 -19 3 -25 2 -19 -4z"/>
<path d="M3630 6770 c0 -5 5 -10 10 -10 6 0 10 5 10 10 0 6 -4 10 -10 10 -5 0
-10 -4 -10 -10z"/>
<path d="M1605 6480 c-29 -32 -10 -71 45 -91 53 -20 70 -40 51 -63 -19 -23
-67 -20 -85 5 -8 12 -20 19 -27 17 -9 -3 -5 -13 13 -31 42 -41 123 -33 128 13
6 42 -2 52 -56 76 -46 20 -55 28 -52 47 4 31 62 37 80 8 15 -24 28 -27 28 -7
0 45 -91 64 -125 26z"/>
<path d="M1772 6409 c2 -76 6 -93 22 -105 26 -19 76 -18 104 2 20 14 22 23 22
105 0 53 -4 89 -10 89 -6 0 -10 -33 -10 -79 0 -86 -12 -111 -54 -111 -38 0
-46 19 -46 107 0 69 -3 83 -16 83 -14 0 -15 -13 -12 -91z"/>
<path d="M1981 6474 c-32 -40 -29 -126 4 -159 32 -33 83 -34 113 -2 23 24 29
47 13 47 -5 0 -16 -11 -25 -25 -16 -25 -49 -32 -74 -17 -30 19 -36 116 -9 150
15 19 65 15 79 -8 12 -19 38 -28 38 -12 0 4 -7 18 -16 30 -23 34 -95 31 -123
-4z"/>
<path d="M2170 6395 c0 -63 4 -105 10 -105 6 0 10 42 10 105 0 63 -4 105 -10
105 -6 0 -10 -42 -10 -105z"/>
<path d="M2331 6474 c-32 -40 -29 -126 4 -159 32 -33 83 -34 113 -2 23 24 29
47 13 47 -5 0 -16 -11 -25 -25 -29 -44 -94 -25 -97 28 -3 43 3 92 13 105 16
19 66 15 80 -8 13 -21 38 -27 38 -10 0 24 -41 50 -79 50 -31 0 -44 -6 -60 -26z"/>
<path d="M2520 6395 c0 -63 4 -105 10 -105 6 0 10 23 10 50 l0 50 55 0 55 0 0
-50 c0 -38 4 -50 15 -50 12 0 15 18 15 105 0 87 -3 105 -15 105 -11 0 -15 -12
-15 -45 l0 -45 -55 0 -55 0 0 45 c0 25 -4 45 -10 45 -6 0 -10 -42 -10 -105z"/>
<path d="M2748 6402 c-42 -109 -43 -112 -27 -112 5 0 15 14 20 30 10 27 15 30
55 30 41 0 46 -3 55 -30 6 -16 17 -30 25 -30 8 0 14 1 14 3 0 20 -82 203 -92
205 -8 1 -27 -34 -50 -96z m68 23 c20 -49 18 -55 -20 -55 l-35 0 16 45 c8 25
17 45 19 45 3 0 12 -16 20 -35z"/>
<path d="M2930 6395 c0 -124 18 -143 22 -23 l3 82 54 -82 c29 -45 60 -82 67
-82 11 0 14 23 14 105 0 87 -3 105 -15 105 -12 0 -15 -16 -15 -82 l0 -81 -52
81 c-29 45 -59 82 -65 82 -10 0 -13 -28 -13 -105z"/>
<path d="M3140 6395 c0 -63 4 -105 10 -105 6 0 10 42 10 105 0 63 -4 105 -10
105 -6 0 -10 -42 -10 -105z"/>
<path d="M3220 6395 c0 -105 16 -148 22 -57 l3 47 43 3 c56 4 54 22 -3 22 -45
0 -45 0 -45 35 l0 35 55 0 c30 0 55 5 55 10 0 6 -28 10 -65 10 l-65 0 0 -105z"/>
<path d="M3388 6402 c-42 -109 -43 -112 -27 -112 5 0 15 14 20 30 10 27 15 30
55 30 41 0 46 -3 55 -30 6 -16 17 -30 25 -30 8 0 14 1 14 3 0 20 -82 203 -92
205 -8 1 -27 -34 -50 -96z m68 23 c20 -49 18 -55 -20 -55 l-35 0 16 45 c8 25
17 45 19 45 3 0 12 -16 20 -35z"/>
<path d="M3570 6395 c0 -63 4 -105 10 -105 6 0 10 23 10 50 l0 50 55 0 55 0 0
-50 c0 -38 4 -50 15 -50 12 0 15 18 15 105 0 87 -3 105 -15 105 -11 0 -15 -12
-15 -45 l0 -45 -55 0 -55 0 0 45 c0 25 -4 45 -10 45 -6 0 -10 -42 -10 -105z"/>
<path d="M510 5215 l0 -245 245 0 245 0 0 245 0 245 -245 0 -245 0 0 -245z
m420 0 l0 -175 -175 0 -175 0 0 175 0 175 175 0 175 0 0 -175z"/>
<path d="M650 5215 l0 -105 105 0 105 0 0 105 0 105 -105 0 -105 0 0 -105z"/>
<path d="M1070 5355 l0 -105 35 0 c33 0 35 -2 35 -35 0 -33 2 -35 35 -35 33 0
35 2 35 35 0 33 2 35 35 35 33 0 35 -2 35 -35 0 -33 2 -35 35 -35 33 0 35 2
35 35 0 33 2 35 35 35 l35 0 0 -70 0 -70 35 0 c33 0 35 2 35 35 l0 35 105 0
105 0 0 35 0 35 -70 0 -70 0 0 35 c0 33 2 35 35 35 l35 0 0 70 0 70 -105 0
-105 0 0 -35 c0 -33 -2 -35 -35 -35 -33 0 -35 2 -35 35 0 33 -2 35 -35 35 -33
0 -35 -2 -35 -35 l0 -35 -70 0 -70 0 0 35 c0 33 -2 35 -35 35 l-35 0 0 -105z
m280 -35 l0 -70 -35 0 -35 0 0 70 0 70 35 0 35 0 0 -70z m210 35 c0 -33 -2
-35 -35 -35 -33 0 -35 2 -35 35 0 33 2 35 35 35 33 0 35 -2 35 -35z"/>
<path d="M1700 5425 l0 -35 70 0 70 0 0 -35 c0 -33 -2 -35 -35 -35 -33 0 -35
-2 -35 -35 0 -33 2 -35 35 -35 33 0 35 -2 35 -35 0 -33 -2 -35 -35 -35 l-35 0
0 -140 0 -140 -70 0 -70 0 0 35 c0 33 2 35 35 35 33 0 35 2 35 35 0 33 -2 35
-35 35 -33 0 -35 -2 -35 -35 0 -33 -2 -35 -35 -35 -33 0 -35 2 -35 35 0 33 -2
35 -35 35 -33 0 -35 -2 -35 -35 0 -33 2 -35 35 -35 33 0 35 -2 35 -35 l0 -35
-70 0 -70 0 0 70 0 70 -35 0 c-33 0 -35 -2 -35 -35 0 -33 -2 -35 -35 -35 -33
0 -35 2 -35 35 0 33 -2 35 -35 35 -33 0 -35 2 -35 35 l0 35 -70 0 -70 0 0
-175 0 -175 -70 0 -70 0 0 35 c0 33 2 35 35 35 33 0 35 2 35 35 0 33 -2 35
-35 35 -33 0 -35 -2 -35 -35 0 -33 -2 -35 -35 -35 -33 0 -35 2 -35 35 l0 35
-105 0 -105 0 0 -105 0 -105 70 0 70 0 0 -35 c0 -33 -2 -35 -35 -35 -33 0 -35
-2 -35 -35 0 -33 -2 -35 -35 -35 -33 0 -35 2 -35 35 l0 35 -70 0 -70 0 0 -70
0 -70 70 0 70 0 0 -35 0 -35 -70 0 -70 0 0 -70 0 -70 35 0 c33 0 35 -2 35 -35
0 -33 2 -35 35 -35 33 0 35 -2 35 -35 0 -33 -2 -35 -35 -35 l-35 0 0 -175 0
-175 -35 0 c-33 0 -35 -2 -35 -35 l0 -35 70 0 70 0 0 -35 0 -35 -70 0 -70 0 0
-70 0 -70 70 0 70 0 0 35 0 35 70 0 70 0 0 35 c0 33 2 35 35 35 l35 0 0 -70 0
-70 -35 0 c-33 0 -35 -2 -35 -35 0 -33 -2 -35 -35 -35 -33 0 -35 -2 -35 -35 0
-33 2 -35 35 -35 l35 0 0 -70 0 -70 -35 0 c-33 0 -35 2 -35 35 l0 35 -70 0
-70 0 0 35 c0 33 2 35 35 35 33 0 35 2 35 35 0 33 -2 35 -35 35 -33 0 -35 -2
-35 -35 0 -33 -2 -35 -35 -35 l-35 0 0 -70 0 -70 105 0 105 0 0 -70 0 -70 -35
0 c-33 0 -35 2 -35 35 0 33 -2 35 -35 35 -33 0 -35 -2 -35 -35 0 -33 -2 -35
-35 -35 -33 0 -35 -2 -35 -35 0 -33 2 -35 35 -35 33 0 35 2 35 35 0 33 2 35
35 35 l35 0 0 -70 0 -70 -35 0 c-33 0 -35 -2 -35 -35 0 -33 2 -35 35 -35 33 0
35 -2 35 -35 0 -33 -2 -35 -35 -35 -33 0 -35 -2 -35 -35 0 -33 2 -35 35 -35
33 0 35 2 35 35 0 33 2 35 35 35 33 0 35 -2 35 -35 0 -33 2 -35 35 -35 33 0
35 -2 35 -35 l0 -35 -140 0 -140 0 0 -70 0 -70 35 0 c33 0 35 -2 35 -35 0 -33
-2 -35 -35 -35 -33 0 -35 -2 -35 -35 0 -33 2 -35 35 -35 33 0 35 -2 35 -35 l0
-35 70 0 70 0 0 -35 c0 -33 -2 -35 -35 -35 l-35 0 0 -105 0 -105 -70 0 -70 0
0 -35 0 -35 70 0 70 0 0 -35 0 -35 -70 0 -70 0 0 -70 0 -70 140 0 140 0 0 35
c0 33 2 35 35 35 33 0 35 2 35 35 l0 35 70 0 70 0 0 35 c0 33 -2 35 -35 35
-33 0 -35 2 -35 35 0 33 2 35 35 35 33 0 35 2 35 35 0 33 2 35 35 35 33 0 35
-2 35 -35 l0 -35 70 0 70 0 0 -35 0 -35 -70 0 -70 0 0 -35 0 -35 70 0 70 0 0
35 c0 33 2 35 35 35 33 0 35 2 35 35 0 33 2 35 35 35 33 0 35 2 35 35 0 33 -2
35 -35 35 -33 0 -35 -2 -35 -35 0 -33 -2 -35 -35 -35 l-35 0 0 70 0 70 35 0
c33 0 35 2 35 35 0 33 2 35 35 35 33 0 35 -2 35 -35 l0 -35 70 0 70 0 0 -35
c0 -33 -2 -35 -35 -35 -33 0 -35 -2 -35 -35 0 -33 2 -35 35 -35 33 0 35 -2 35
-35 l0 -35 70 0 70 0 0 70 0 70 35 0 c33 0 35 2 35 35 0 33 2 35 35 35 33 0
35 2 35 35 l0 35 140 0 140 0 0 35 0 35 70 0 70 0 0 35 c0 33 2 35 35 35 l35
0 0 -70 0 -70 105 0 105 0 0 -35 c0 -33 -2 -35 -35 -35 -33 0 -35 -2 -35 -35
0 -33 -2 -35 -35 -35 -33 0 -35 2 -35 35 l0 35 -70 0 -70 0 0 35 c0 33 -2 35
-35 35 l-35 0 0 -70 0 -70 -35 0 c-33 0 -35 2 -35 35 l0 35 -70 0 -70 0 0 -70
0 -70 -35 0 c-33 0 -35 2 -35 35 0 33 -2 35 -35 35 -33 0 -35 -2 -35 -35 0
-33 2 -35 35 -35 33 0 35 -2 35 -35 0 -33 -2 -35 -35 -35 l-35 0 0 -70 0 -70
-105 0 -105 0 0 35 0 35 -70 0 -70 0 0 -70 0 -70 -35 0 c-33 0 -35 -2 -35 -35
0 -33 -2 -35 -35 -35 -33 0 -35 -2 -35 -35 0 -33 2 -35 35 -35 33 0 35 -2 35
-35 0 -33 2 -35 35 -35 33 0 35 -2 35 -35 0 -33 -2 -35 -35 -35 l-35 0 0 -105
0 -105 35 0 c33 0 35 -2 35 -35 l0 -35 70 0 70 0 0 70 0 70 35 0 c33 0 35 2
35 35 0 33 2 35 35 35 33 0 35 2 35 35 0 33 2 35 35 35 33 0 35 2 35 35 l0 35
70 0 70 0 0 -35 c0 -33 -2 -35 -35 -35 -33 0 -35 -2 -35 -35 0 -33 -2 -35 -35
-35 l-35 0 0 -105 0 -105 35 0 c33 0 35 2 35 35 0 33 2 35 35 35 33 0 35 -2
35 -35 l0 -35 70 0 70 0 0 35 c0 33 -2 35 -35 35 -33 0 -35 2 -35 35 0 33 2
35 35 35 33 0 35 2 35 35 0 33 2 35 35 35 33 0 35 -2 35 -35 0 -33 2 -35 35
-35 33 0 35 2 35 35 0 33 -2 35 -35 35 l-35 0 0 105 0 105 35 0 c33 0 35 2 35
35 0 33 2 35 35 35 l35 0 0 -70 0 -70 -35 0 c-33 0 -35 -2 -35 -35 0 -33 2
-35 35 -35 l35 0 0 -70 0 -70 35 0 c33 0 35 -2 35 -35 0 -33 -2 -35 -35 -35
-33 0 -35 -2 -35 -35 l0 -35 70 0 70 0 0 35 c0 33 2 35 35 35 33 0 35 -2 35
-35 0 -33 2 -35 35 -35 33 0 35 2 35 35 0 33 2 35 35 35 33 0 35 2 35 35 0 33
2 35 35 35 33 0 35 2 35 35 l0 35 70 0 70 0 0 -35 c0 -33 -2 -35 -35 -35 -33
0 -35 -2 -35 -35 0 -33 2 -35 35 -35 33 0 35 -2 35 -35 l0 -35 105 0 105 0 0
35 0 35 70 0 70 0 0 -35 0 -35 70 0 70 0 0 35 c0 33 2 35 35 35 33 0 35 -2 35
-35 l0 -35 70 0 70 0 0 35 0 35 70 0 70 0 0 -35 c0 -33 2 -35 35 -35 33 0 35
2 35 35 0 33 -2 35 -35 35 l-35 0 0 70 0 70 35 0 c33 0 35 -2 35 -35 0 -33 2
-35 35 -35 33 0 35 2 35 35 l0 35 105 0 105 0 0 35 0 35 70 0 70 0 0 -35 c0
-33 -2 -35 -35 -35 -33 0 -35 -2 -35 -35 l0 -35 -70 0 -70 0 0 -35 0 -35 -70
0 -70 0 0 -35 0 -35 105 0 105 0 0 35 c0 33 2 35 35 35 33 0 35 -2 35 -35 0
-33 2 -35 35 -35 l35 0 0 105 0 105 35 0 c33 0 35 2 35 35 0 33 2 35 35 35
l35 0 0 -105 0 -105 -35 0 c-33 0 -35 -2 -35 -35 0 -33 2 -35 35 -35 33 0 35
2 35 35 0 33 2 35 35 35 33 0 35 -2 35 -35 0 -33 2 -35 35 -35 33 0 35 2 35
35 l0 35 70 0 70 0 0 -35 0 -35 105 0 105 0 0 245 0 245 -35 0 c-33 0 -35 2
-35 35 0 33 2 35 35 35 l35 0 0 105 0 105 -35 0 c-33 0 -35 2 -35 35 0 33 2
35 35 35 l35 0 0 105 0 105 -35 0 c-33 0 -35 2 -35 35 0 33 2 35 35 35 33 0
35 2 35 35 0 33 -2 35 -35 35 -33 0 -35 2 -35 35 0 33 2 35 35 35 33 0 35 2
35 35 0 33 -2 35 -35 35 -33 0 -35 2 -35 35 0 33 2 35 35 35 33 0 35 2 35 35
0 33 -2 35 -35 35 -33 0 -35 2 -35 35 0 33 2 35 35 35 l35 0 0 70 0 70 -70 0
-70 0 0 -105 0 -105 -35 0 c-33 0 -35 2 -35 35 l0 35 -70 0 -70 0 0 70 0 70
35 0 35 0 0 70 0 70 70 0 70 0 0 35 c0 33 2 35 35 35 l35 0 0 -70 0 -70 35 0
35 0 0 70 0 70 -35 0 c-33 0 -35 2 -35 35 0 33 2 35 35 35 33 0 35 2 35 35 0
33 -2 35 -35 35 -33 0 -35 -2 -35 -35 0 -33 -2 -35 -35 -35 -33 0 -35 2 -35
35 0 33 -2 35 -35 35 -33 0 -35 2 -35 35 0 33 -2 35 -35 35 -33 0 -35 2 -35
35 0 33 2 35 35 35 33 0 35 2 35 35 0 33 2 35 35 35 33 0 35 -2 35 -35 0 -33
2 -35 35 -35 33 0 35 -2 35 -35 0 -33 2 -35 35 -35 33 0 35 2 35 35 0 33 -2
35 -35 35 -33 0 -35 2 -35 35 0 33 2 35 35 35 33 0 35 2 35 35 0 33 -2 35 -35
35 -33 0 -35 2 -35 35 0 33 2 35 35 35 l35 0 0 175 0 175 -35 0 c-33 0 -35 2
-35 35 0 33 2 35 35 35 l35 0 0 105 0 105 -35 0 c-33 0 -35 2 -35 35 0 33 2
35 35 35 l35 0 0 70 0 70 -35 0 -35 0 0 -70 0 -70 -35 0 c-33 0 -35 2 -35 35
0 33 -2 35 -35 35 -33 0 -35 2 -35 35 l0 35 -140 0 -140 0 0 35 c0 33 2 35 35
35 l35 0 0 70 0 70 105 0 105 0 0 -35 c0 -33 -2 -35 -35 -35 -33 0 -35 -2 -35
-35 l0 -35 70 0 70 0 0 70 0 70 35 0 35 0 0 -70 0 -70 35 0 35 0 0 140 0 140
-35 0 c-33 0 -35 2 -35 35 0 33 2 35 35 35 33 0 35 2 35 35 l0 35 -105 0 -105
0 0 -35 0 -35 -70 0 -70 0 0 35 0 35 -105 0 -105 0 0 70 0 70 -35 0 c-33 0
-35 -2 -35 -35 0 -33 -2 -35 -35 -35 l-35 0 0 70 0 70 35 0 c33 0 35 2 35 35
0 33 2 35 35 35 l35 0 0 140 0 140 -70 0 -70 0 0 -70 0 -70 -35 0 -35 0 0 -70
0 -70 -35 0 -35 0 0 140 0 140 -35 0 -35 0 0 -70 0 -70 -35 0 c-33 0 -35 2
-35 35 0 33 -2 35 -35 35 -33 0 -35 2 -35 35 0 33 -2 35 -35 35 -33 0 -35 -2
-35 -35 0 -33 2 -35 35 -35 33 0 35 -2 35 -35 0 -33 -2 -35 -35 -35 l-35 0 0
-70 0 -70 -35 0 c-33 0 -35 2 -35 35 0 33 -2 35 -35 35 -33 0 -35 2 -35 35 0
33 -2 35 -35 35 -33 0 -35 2 -35 35 l0 35 70 0 70 0 0 35 0 35 -70 0 -70 0 0
-35 c0 -33 -2 -35 -35 -35 -33 0 -35 -2 -35 -35 0 -33 -2 -35 -35 -35 -33 0
-35 -2 -35 -35 0 -33 -2 -35 -35 -35 l-35 0 0 70 0 70 35 0 c33 0 35 2 35 35
l0 35 -175 0 -175 0 0 -70 0 -70 105 0 105 0 0 -35 0 -35 -70 0 -70 0 0 -35
c0 -33 -2 -35 -35 -35 -33 0 -35 2 -35 35 0 33 -2 35 -35 35 -33 0 -35 2 -35
35 0 33 -2 35 -35 35 -33 0 -35 2 -35 35 0 33 2 35 35 35 33 0 35 2 35 35 l0
35 -70 0 -70 0 0 -35 c0 -33 -2 -35 -35 -35 -33 0 -35 2 -35 35 l0 35 -210 0
-210 0 0 -35 c0 -33 2 -35 35 -35 33 0 35 -2 35 -35 l0 -35 -70 0 -70 0 0 -70
0 -70 70 0 70 0 0 -105 0 -105 35 0 c33 0 35 -2 35 -35 0 -33 -2 -35 -35 -35
-33 0 -35 -2 -35 -35 0 -33 -2 -35 -35 -35 -33 0 -35 2 -35 35 0 33 -2 35 -35
35 -33 0 -35 -2 -35 -35 0 -33 2 -35 35 -35 33 0 35 -2 35 -35 0 -33 -2 -35
-35 -35 -33 0 -35 -2 -35 -35 0 -33 2 -35 35 -35 33 0 35 -2 35 -35 0 -33 2
-35 35 -35 33 0 35 2 35 35 0 33 2 35 35 35 l35 0 0 -105 0 -105 -35 0 c-33 0
-35 2 -35 35 l0 35 -70 0 -70 0 0 35 0 35 -70 0 -70 0 0 35 c0 33 2 35 35 35
l35 0 0 70 0 70 -35 0 c-33 0 -35 2 -35 35 0 33 2 35 35 35 l35 0 0 70 0 70
35 0 c33 0 35 -2 35 -35 0 -33 2 -35 35 -35 33 0 35 2 35 35 0 33 -2 35 -35
35 -33 0 -35 2 -35 35 0 33 -2 35 -35 35 -33 0 -35 2 -35 35 0 33 -2 35 -35
35 -33 0 -35 2 -35 35 0 33 2 35 35 35 33 0 35 2 35 35 l0 35 -70 0 -70 0 0
-35 c0 -33 -2 -35 -35 -35 l-35 0 0 70 0 70 70 0 70 0 0 35 0 35 -175 0 -175
0 0 -35z m840 -70 l0 -35 140 0 140 0 0 -35 c0 -33 2 -35 35 -35 33 0 35 -2
35 -35 0 -33 2 -35 35 -35 33 0 35 -2 35 -35 0 -33 2 -35 35 -35 33 0 35 2 35
35 0 33 2 35 35 35 33 0 35 -2 35 -35 0 -33 -2 -35 -35 -35 l-35 0 0 -70 0
-70 -35 0 c-33 0 -35 -2 -35 -35 l0 -35 -70 0 -70 0 0 70 0 70 35 0 c33 0 35
-2 35 -35 0 -33 2 -35 35 -35 l35 0 0 70 0 70 -70 0 -70 0 0 70 0 70 -175 0
-175 0 0 -140 0 -140 -35 0 -35 0 0 105 0 105 -35 0 -35 0 0 70 0 70 70 0 70
0 0 35 c0 33 2 35 35 35 33 0 35 -2 35 -35z m910 -70 c0 -33 -2 -35 -35 -35
-33 0 -35 -2 -35 -35 0 -33 2 -35 35 -35 33 0 35 -2 35 -35 0 -33 2 -35 35
-35 33 0 35 2 35 35 0 33 2 35 35 35 33 0 35 -2 35 -35 l0 -35 70 0 70 0 0
105 0 105 35 0 c33 0 35 -2 35 -35 0 -33 2 -35 35 -35 33 0 35 -2 35 -35 0
-33 -2 -35 -35 -35 -33 0 -35 -2 -35 -35 0 -33 2 -35 35 -35 l35 0 0 -70 0
-70 35 0 c33 0 35 2 35 35 0 33 2 35 35 35 33 0 35 -2 35 -35 0 -33 2 -35 35
-35 33 0 35 -2 35 -35 0 -33 2 -35 35 -35 33 0 35 -2 35 -35 l0 -35 70 0 70 0
0 -35 c0 -33 2 -35 35 -35 33 0 35 2 35 35 0 33 2 35 35 35 33 0 35 -2 35 -35
l0 -35 70 0 70 0 0 35 c0 33 2 35 35 35 33 0 35 -2 35 -35 0 -33 2 -35 35 -35
33 0 35 -2 35 -35 0 -33 -2 -35 -35 -35 -33 0 -35 -2 -35 -35 0 -33 -2 -35
-35 -35 -33 0 -35 2 -35 35 l0 35 -140 0 -140 0 0 -105 0 -105 -35 0 c-33 0
-35 -2 -35 -35 0 -33 2 -35 35 -35 33 0 35 -2 35 -35 l0 -35 140 0 140 0 0
-35 c0 -33 2 -35 35 -35 33 0 35 -2 35 -35 0 -33 2 -35 35 -35 l35 0 0 -105 0
-105 -35 0 c-33 0 -35 -2 -35 -35 0 -33 2 -35 35 -35 l35 0 0 -140 0 -140
-105 0 -105 0 0 -35 0 -35 -70 0 -70 0 0 35 0 35 70 0 70 0 0 35 c0 33 -2 35
-35 35 -33 0 -35 2 -35 35 0 33 -2 35 -35 35 -33 0 -35 -2 -35 -35 l0 -35 -70
0 -70 0 0 -105 0 -105 -35 0 -35 0 0 -70 0 -70 -35 0 -35 0 0 -70 0 -70 35 0
c33 0 35 -2 35 -35 l0 -35 175 0 175 0 0 35 c0 33 2 35 35 35 l35 0 0 -70 0
-70 -35 0 c-33 0 -35 -2 -35 -35 0 -33 -2 -35 -35 -35 -33 0 -35 -2 -35 -35
l0 -35 -70 0 -70 0 0 -35 c0 -33 -2 -35 -35 -35 -33 0 -35 2 -35 35 l0 35 -70
0 -70 0 0 -35 c0 -33 2 -35 35 -35 33 0 35 -2 35 -35 l0 -35 -105 0 -105 0 0
35 c0 33 2 35 35 35 l35 0 0 70 0 70 35 0 c33 0 35 2 35 35 l0 35 -70 0 -70 0
0 70 0 70 -35 0 -35 0 0 -105 0 -105 35 0 c33 0 35 -2 35 -35 0 -33 -2 -35
-35 -35 -33 0 -35 -2 -35 -35 0 -33 -2 -35 -35 -35 -33 0 -35 -2 -35 -35 0
-33 2 -35 35 -35 33 0 35 -2 35 -35 l0 -35 70 0 70 0 0 -35 c0 -33 2 -35 35
-35 l35 0 0 -70 0 -70 35 0 35 0 0 70 0 70 70 0 70 0 0 35 c0 33 -2 35 -35 35
-33 0 -35 2 -35 35 0 33 2 35 35 35 33 0 35 -2 35 -35 l0 -35 70 0 70 0 0 -70
0 -70 35 0 c33 0 35 2 35 35 0 33 2 35 35 35 33 0 35 -2 35 -35 0 -33 2 -35
35 -35 33 0 35 2 35 35 0 33 2 35 35 35 33 0 35 -2 35 -35 0 -33 -2 -35 -35
-35 -33 0 -35 -2 -35 -35 0 -33 2 -35 35 -35 33 0 35 -2 35 -35 0 -33 -2 -35
-35 -35 -33 0 -35 -2 -35 -35 0 -33 2 -35 35 -35 33 0 35 -2 35 -35 0 -33 -2
-35 -35 -35 -33 0 -35 -2 -35 -35 0 -33 2 -35 35 -35 l35 0 0 -105 0 -105 -35
0 c-33 0 -35 -2 -35 -35 0 -33 2 -35 35 -35 33 0 35 -2 35 -35 0 -33 -2 -35
-35 -35 -33 0 -35 -2 -35 -35 0 -33 -2 -35 -35 -35 -33 0 -35 -2 -35 -35 0
-33 2 -35 35 -35 33 0 35 -2 35 -35 0 -33 2 -35 35 -35 l35 0 0 -210 0 -210
-70 0 -70 0 0 35 0 35 -70 0 -70 0 0 -35 c0 -33 -2 -35 -35 -35 l-35 0 0 70 0
70 70 0 70 0 0 70 0 70 35 0 c33 0 35 2 35 35 0 33 -2 35 -35 35 -33 0 -35 2
-35 35 0 33 2 35 35 35 33 0 35 2 35 35 0 33 -2 35 -35 35 -33 0 -35 2 -35 35
0 33 -2 35 -35 35 l-35 0 0 105 0 105 -35 0 -35 0 0 105 0 105 -35 0 c-33 0
-35 2 -35 35 0 33 -2 35 -35 35 l-35 0 0 -70 0 -70 35 0 35 0 0 -70 0 -70 -35
0 c-33 0 -35 -2 -35 -35 0 -33 2 -35 35 -35 33 0 35 -2 35 -35 0 -33 2 -35 35
-35 33 0 35 -2 35 -35 0 -33 -2 -35 -35 -35 -33 0 -35 2 -35 35 0 33 -2 35
-35 35 -33 0 -35 -2 -35 -35 l0 -35 -175 0 -175 0 0 -70 0 -70 -70 0 -70 0 0
-35 c0 -33 2 -35 35 -35 33 0 35 -2 35 -35 0 -33 2 -35 35 -35 33 0 35 2 35
35 0 33 2 35 35 35 33 0 35 2 35 35 0 33 2 35 35 35 33 0 35 2 35 35 l0 35 70
0 70 0 0 -35 c0 -33 -2 -35 -35 -35 -33 0 -35 -2 -35 -35 0 -33 2 -35 35 -35
33 0 35 -2 35 -35 l0 -35 -140 0 -140 0 0 -35 c0 -33 -2 -35 -35 -35 -33 0
-35 -2 -35 -35 0 -33 -2 -35 -35 -35 l-35 0 0 105 0 105 -35 0 -35 0 0 -70 0
-70 -35 0 c-33 0 -35 -2 -35 -35 0 -33 -2 -35 -35 -35 -33 0 -35 -2 -35 -35 0
-33 -2 -35 -35 -35 -33 0 -35 -2 -35 -35 0 -33 -2 -35 -35 -35 -33 0 -35 2
-35 35 0 33 -2 35 -35 35 -33 0 -35 -2 -35 -35 l0 -35 -70 0 -70 0 0 35 0 35
70 0 70 0 0 35 0 35 -140 0 -140 0 0 140 0 140 -35 0 -35 0 0 -140 0 -140 -70
0 -70 0 0 70 0 70 35 0 35 0 0 70 0 70 -35 0 c-33 0 -35 2 -35 35 0 33 2 35
35 35 33 0 35 2 35 35 0 33 -2 35 -35 35 l-35 0 0 70 0 70 -70 0 -70 0 0 35 0
35 -105 0 -105 0 0 -70 0 -70 35 0 c33 0 35 -2 35 -35 0 -33 -2 -35 -35 -35
-33 0 -35 -2 -35 -35 0 -33 -2 -35 -35 -35 -33 0 -35 2 -35 35 0 33 2 35 35
35 33 0 35 2 35 35 l0 35 -70 0 -70 0 0 70 0 70 35 0 c33 0 35 2 35 35 0 33 2
35 35 35 33 0 35 2 35 35 l0 35 70 0 70 0 0 35 0 35 105 0 105 0 0 35 c0 33 2
35 35 35 33 0 35 2 35 35 0 33 -2 35 -35 35 l-35 0 0 70 0 70 -35 0 -35 0 0
-70 0 -70 -35 0 c-33 0 -35 -2 -35 -35 l0 -35 -70 0 -70 0 0 -35 c0 -33 -2
-35 -35 -35 -33 0 -35 2 -35 35 0 33 2 35 35 35 33 0 35 2 35 35 l0 35 70 0
70 0 0 35 0 35 -105 0 -105 0 0 35 c0 33 -2 35 -35 35 -33 0 -35 -2 -35 -35 0
-33 -2 -35 -35 -35 -33 0 -35 -2 -35 -35 0 -33 2 -35 35 -35 33 0 35 -2 35
-35 0 -33 -2 -35 -35 -35 -33 0 -35 2 -35 35 0 33 -2 35 -35 35 -33 0 -35 2
-35 35 0 33 2 35 35 35 l35 0 0 70 0 70 -35 0 c-33 0 -35 -2 -35 -35 0 -33 -2
-35 -35 -35 l-35 0 0 -70 0 -70 -175 0 -175 0 0 70 0 70 -35 0 -35 0 0 -70 0
-70 -35 0 -35 0 0 70 0 70 -35 0 -35 0 0 -70 0 -70 -35 0 -35 0 0 70 0 70 -35
0 -35 0 0 -70 0 -70 -35 0 c-33 0 -35 -2 -35 -35 l0 -35 175 0 175 0 0 -35 0
-35 -70 0 -70 0 0 -70 0 -70 -35 0 -35 0 0 70 0 70 -105 0 -105 0 0 105 0 105
35 0 c33 0 35 2 35 35 0 33 2 35 35 35 33 0 35 2 35 35 l0 35 -70 0 -70 0 0
35 0 35 -70 0 -70 0 0 -35 c0 -33 2 -35 35 -35 33 0 35 -2 35 -35 0 -33 -2
-35 -35 -35 -33 0 -35 2 -35 35 0 33 -2 35 -35 35 l-35 0 0 -70 0 -70 70 0 70
0 0 -35 0 -35 -70 0 -70 0 0 -35 c0 -33 2 -35 35 -35 33 0 35 -2 35 -35 0 -33
-2 -35 -35 -35 -33 0 -35 -2 -35 -35 0 -33 -2 -35 -35 -35 l-35 0 0 140 0 140
-35 0 c-33 0 -35 -2 -35 -35 0 -33 -2 -35 -35 -35 -33 0 -35 2 -35 35 0 33 -2
35 -35 35 -33 0 -35 -2 -35 -35 0 -33 -2 -35 -35 -35 -33 0 -35 -2 -35 -35 0
-33 -2 -35 -35 -35 -33 0 -35 2 -35 35 0 33 2 35 35 35 33 0 35 2 35 35 l0 35
-70 0 -70 0 0 35 c0 33 2 35 35 35 33 0 35 2 35 35 0 33 2 35 35 35 33 0 35 2
35 35 0 33 2 35 35 35 33 0 35 -2 35 -35 l0 -35 140 0 140 0 0 35 0 35 -105 0
-105 0 0 35 c0 33 -2 35 -35 35 -33 0 -35 2 -35 35 0 33 -2 35 -35 35 -33 0
-35 2 -35 35 l0 35 -70 0 -70 0 0 35 0 35 105 0 105 0 0 -35 0 -35 70 0 70 0
0 35 c0 33 -2 35 -35 35 -33 0 -35 2 -35 35 0 33 -2 35 -35 35 -33 0 -35 2
-35 35 0 33 -2 35 -35 35 -33 0 -35 -2 -35 -35 0 -33 -2 -35 -35 -35 -33 0
-35 2 -35 35 0 33 2 35 35 35 33 0 35 2 35 35 l0 35 140 0 140 0 0 -70 0 -70
35 0 35 0 0 70 0 70 35 0 c33 0 35 2 35 35 0 33 -2 35 -35 35 l-35 0 0 70 0
70 35 0 c33 0 35 -2 35 -35 0 -33 2 -35 35 -35 l35 0 0 -70 0 -70 -35 0 c-33
0 -35 -2 -35 -35 0 -33 2 -35 35 -35 l35 0 0 -70 0 -70 35 0 c33 0 35 -2 35
-35 0 -33 2 -35 35 -35 l35 0 0 140 0 140 -35 0 -35 0 0 70 0 70 35 0 c33 0
35 2 35 35 l0 35 70 0 70 0 0 35 c0 33 -2 35 -35 35 -33 0 -35 2 -35 35 0 33
-2 35 -35 35 -33 0 -35 2 -35 35 0 33 2 35 35 35 33 0 35 -2 35 -35 0 -33 2
-35 35 -35 l35 0 0 105 0 105 105 0 105 0 0 70 0 70 -35 0 c-33 0 -35 2 -35
35 0 33 2 35 35 35 33 0 35 -2 35 -35 0 -33 2 -35 35 -35 l35 0 0 105 0 105
70 0 70 0 0 35 c0 33 -2 35 -35 35 l-35 0 0 105 0 105 -35 0 c-33 0 -35 -2
-35 -35 0 -33 -2 -35 -35 -35 l-35 0 0 105 0 105 -35 0 -35 0 0 -70 0 -70 -70
0 -70 0 0 -35 0 -35 -70 0 -70 0 0 35 c0 33 -2 35 -35 35 l-35 0 0 -70 0 -70
-105 0 -105 0 0 -35 c0 -33 2 -35 35 -35 33 0 35 -2 35 -35 0 -33 -2 -35 -35
-35 -33 0 -35 -2 -35 -35 l0 -35 70 0 70 0 0 70 0 70 35 0 35 0 0 -105 0 -105
35 0 35 0 0 70 0 70 35 0 35 0 0 70 0 70 35 0 35 0 0 -175 0 -175 35 0 c33 0
35 -2 35 -35 l0 -35 -140 0 -140 0 0 -35 c0 -33 2 -35 35 -35 33 0 35 -2 35
-35 0 -33 -2 -35 -35 -35 l-35 0 0 -70 0 -70 -35 0 c-33 0 -35 -2 -35 -35 0
-33 2 -35 35 -35 33 0 35 -2 35 -35 0 -33 -2 -35 -35 -35 -33 0 -35 2 -35 35
0 33 -2 35 -35 35 -33 0 -35 2 -35 35 0 33 -2 35 -35 35 -33 0 -35 2 -35 35 0
33 -2 35 -35 35 -33 0 -35 -2 -35 -35 l0 -35 -70 0 -70 0 0 35 0 35 70 0 70 0
0 35 c0 33 2 35 35 35 33 0 35 -2 35 -35 0 -33 2 -35 35 -35 l35 0 0 105 0
105 -35 0 c-33 0 -35 2 -35 35 0 33 2 35 35 35 33 0 35 2 35 35 0 33 -2 35
-35 35 -33 0 -35 2 -35 35 0 33 -2 35 -35 35 l-35 0 0 -70 0 -70 -35 0 c-33 0
-35 -2 -35 -35 l0 -35 -70 0 -70 0 0 35 0 35 70 0 70 0 0 35 0 35 -70 0 -70 0
0 35 c0 33 -2 35 -35 35 l-35 0 0 -70 0 -70 -35 0 -35 0 0 -70 0 -70 -35 0
-35 0 0 140 0 140 70 0 70 0 0 140 0 140 -35 0 c-33 0 -35 -2 -35 -35 0 -33
-2 -35 -35 -35 -33 0 -35 2 -35 35 0 33 2 35 35 35 33 0 35 2 35 35 0 33 2 35
35 35 33 0 35 -2 35 -35 0 -33 2 -35 35 -35 l35 0 0 70 0 70 -70 0 -70 0 0 70
0 70 70 0 70 0 0 -70 0 -70 70 0 70 0 0 -35 c0 -33 2 -35 35 -35 33 0 35 2 35
35 0 33 2 35 35 35 33 0 35 2 35 35 0 33 -2 35 -35 35 l-35 0 0 70 0 70 -70 0
-70 0 0 35 0 35 70 0 70 0 0 -35 c0 -33 2 -35 35 -35 33 0 35 2 35 35 0 33 2
35 35 35 33 0 35 2 35 35 l0 35 70 0 70 0 0 35 c0 33 -2 35 -35 35 -33 0 -35
2 -35 35 0 33 -2 35 -35 35 -33 0 -35 -2 -35 -35 0 -33 -2 -35 -35 -35 l-35 0
0 105 0 105 35 0 c33 0 35 -2 35 -35 0 -33 2 -35 35 -35 33 0 35 -2 35 -35 0
-33 2 -35 35 -35 33 0 35 -2 35 -35 l0 -35 210 0 210 0 0 35 c0 33 2 35 35 35
l35 0 0 140 0 140 70 0 70 0 0 -70 0 -70 35 0 c33 0 35 2 35 35 0 33 2 35 35
35 33 0 35 -2 35 -35 0 -33 -2 -35 -35 -35 l-35 0 0 -70 0 -70 -35 0 c-33 0
-35 -2 -35 -35 0 -33 -2 -35 -35 -35 -33 0 -35 -2 -35 -35 l0 -35 70 0 70 0 0
-35 c0 -33 -2 -35 -35 -35 -33 0 -35 -2 -35 -35 l0 -35 -70 0 -70 0 0 -105 0
-105 70 0 70 0 0 35 c0 33 -2 35 -35 35 -33 0 -35 2 -35 35 l0 35 105 0 105 0
0 -35 0 -35 70 0 70 0 0 -35 0 -35 70 0 70 0 0 35 0 35 70 0 70 0 0 -35 0 -35
70 0 70 0 0 70 0 70 -105 0 -105 0 0 35 c0 33 2 35 35 35 33 0 35 2 35 35 0
33 -2 35 -35 35 -33 0 -35 2 -35 35 0 33 -2 35 -35 35 -33 0 -35 2 -35 35 l0
35 105 0 105 0 0 -35 c0 -33 2 -35 35 -35 33 0 35 2 35 35 l0 35 70 0 70 0 0
-35 0 -35 -70 0 -70 0 0 -35 0 -35 70 0 70 0 0 -70 0 -70 70 0 70 0 0 35 c0
33 -2 35 -35 35 -33 0 -35 2 -35 35 0 33 2 35 35 35 33 0 35 2 35 35 0 33 2
35 35 35 33 0 35 -2 35 -35 0 -33 2 -35 35 -35 l35 0 0 105 0 105 35 0 c33 0
35 2 35 35 0 33 -2 35 -35 35 -33 0 -35 2 -35 35 0 33 2 35 35 35 33 0 35 -2
35 -35 0 -33 2 -35 35 -35 l35 0 0 70 0 70 35 0 35 0 0 -70 0 -70 -35 0 c-33
0 -35 -2 -35 -35 0 -33 -2 -35 -35 -35 -33 0 -35 -2 -35 -35 l0 -35 70 0 70 0
0 35 0 35 70 0 70 0 0 35 c0 33 -2 35 -35 35 -33 0 -35 2 -35 35 0 33 2 35 35
35 33 0 35 2 35 35 0 33 -2 35 -35 35 -33 0 -35 2 -35 35 0 33 -2 35 -35 35
-33 0 -35 2 -35 35 0 33 2 35 35 35 33 0 35 2 35 35 0 33 2 35 35 35 33 0 35
-2 35 -35z m700 -70 c0 -33 -2 -35 -35 -35 -33 0 -35 2 -35 35 0 33 2 35 35
35 33 0 35 -2 35 -35z m-1400 -210 l0 -105 -105 0 -105 0 0 105 0 105 105 0
105 0 0 -105z m-1960 -210 c0 -33 2 -35 35 -35 33 0 35 -2 35 -35 0 -33 -2
-35 -35 -35 -33 0 -35 2 -35 35 0 33 -2 35 -35 35 -33 0 -35 2 -35 35 0 33 2
35 35 35 33 0 35 -2 35 -35z m210 -280 c0 -33 -2 -35 -35 -35 -33 0 -35 2 -35
35 0 33 2 35 35 35 33 0 35 -2 35 -35z m840 -350 c0 -33 -2 -35 -35 -35 -33 0
-35 -2 -35 -35 0 -33 -2 -35 -35 -35 -33 0 -35 -2 -35 -35 0 -33 -2 -35 -35
-35 -33 0 -35 2 -35 35 0 33 2 35 35 35 33 0 35 2 35 35 0 33 -2 35 -35 35
-33 0 -35 2 -35 35 l0 35 105 0 105 0 0 -35z m-840 -490 c0 -33 -2 -35 -35
-35 -33 0 -35 2 -35 35 0 33 2 35 35 35 33 0 35 -2 35 -35z m3640 -140 c0 -33
-2 -35 -35 -35 -33 0 -35 -2 -35 -35 0 -33 -2 -35 -35 -35 -33 0 -35 2 -35 35
0 33 2 35 35 35 33 0 35 2 35 35 0 33 2 35 35 35 33 0 35 -2 35 -35z m-3570
-210 l0 -105 -105 0 -105 0 0 105 0 105 105 0 105 0 0 -105z m3360 0 l0 -105
-105 0 -105 0 0 105 0 105 105 0 105 0 0 -105z m-3430 -1050 c0 -33 -2 -35
-35 -35 -33 0 -35 -2 -35 -35 0 -33 2 -35 35 -35 33 0 35 -2 35 -35 0 -33 -2
-35 -35 -35 -33 0 -35 -2 -35 -35 0 -33 -2 -35 -35 -35 -33 0 -35 -2 -35 -35
0 -33 -2 -35 -35 -35 -33 0 -35 2 -35 35 0 33 2 35 35 35 33 0 35 2 35 35 0
33 2 35 35 35 33 0 35 2 35 35 l0 35 -105 0 -105 0 0 35 0 35 105 0 105 0 0
35 c0 33 2 35 35 35 33 0 35 -2 35 -35z m1120 -280 c0 -33 -2 -35 -35 -35 -33
0 -35 2 -35 35 0 33 2 35 35 35 33 0 35 -2 35 -35z m-1330 -140 c0 -33 -2 -35
-35 -35 -33 0 -35 2 -35 35 0 33 2 35 35 35 33 0 35 -2 35 -35z m1330 0 c0
-33 2 -35 35 -35 l35 0 0 -70 0 -70 -35 0 c-33 0 -35 2 -35 35 l0 35 -70 0
-70 0 0 70 0 70 70 0 70 0 0 -35z m630 0 c0 -33 -2 -35 -35 -35 -33 0 -35 2
-35 35 0 33 2 35 35 35 33 0 35 -2 35 -35z m-840 -105 l0 -70 35 0 c33 0 35
-2 35 -35 0 -33 -2 -35 -35 -35 -33 0 -35 2 -35 35 0 33 -2 35 -35 35 -33 0
-35 -2 -35 -35 0 -33 -2 -35 -35 -35 l-35 0 0 105 0 105 70 0 70 0 0 -70z
m420 0 l0 -70 -35 0 -35 0 0 70 0 70 35 0 35 0 0 -70z m-770 -35 l0 -35 -70 0
-70 0 0 35 0 35 70 0 70 0 0 -35z m1190 -70 l0 -105 -105 0 -105 0 0 105 0
105 105 0 105 0 0 -105z m1680 0 l0 -105 -105 0 -105 0 0 105 0 105 105 0 105
0 0 -105z m-1960 0 c0 -33 -2 -35 -35 -35 -33 0 -35 2 -35 35 0 33 2 35 35 35
33 0 35 -2 35 -35z m-840 -140 l0 -105 -70 0 -70 0 0 -35 c0 -33 -2 -35 -35
-35 l-35 0 0 70 0 70 35 0 c33 0 35 2 35 35 0 33 -2 35 -35 35 -33 0 -35 2
-35 35 l0 35 105 0 105 0 0 -105z m420 0 c0 -33 -2 -35 -35 -35 -33 0 -35 2
-35 35 0 33 2 35 35 35 33 0 35 -2 35 -35z m420 0 c0 -33 -2 -35 -35 -35 -33
0 -35 -2 -35 -35 l0 -35 70 0 70 0 0 35 0 35 70 0 70 0 0 -35 c0 -33 -2 -35
-35 -35 -33 0 -35 -2 -35 -35 l0 -35 -140 0 -140 0 0 105 0 105 70 0 70 0 0
-35z m560 -210 c0 -33 -2 -35 -35 -35 -33 0 -35 2 -35 35 0 33 2 35 35 35 33
0 35 -2 35 -35z"/>
<path d="M3520 5075 c0 -33 -2 -35 -35 -35 -33 0 -35 -2 -35 -35 0 -33 2 -35
35 -35 33 0 35 -2 35 -35 l0 -35 70 0 70 0 0 -35 0 -35 -70 0 -70 0 0 -35 c0
-33 -2 -35 -35 -35 -33 0 -35 2 -35 35 0 33 -2 35 -35 35 -33 0 -35 -2 -35
-35 0 -33 2 -35 35 -35 l35 0 0 -70 0 -70 -35 0 c-33 0 -35 2 -35 35 l0 35
-70 0 -70 0 0 35 c0 33 -2 35 -35 35 -33 0 -35 -2 -35 -35 0 -33 -2 -35 -35
-35 -33 0 -35 -2 -35 -35 0 -33 -2 -35 -35 -35 -33 0 -35 2 -35 35 0 33 -2 35
-35 35 -33 0 -35 -2 -35 -35 0 -33 2 -35 35 -35 l35 0 0 -70 0 -70 -105 0
-105 0 0 35 c0 33 -2 35 -35 35 -33 0 -35 2 -35 35 0 33 -2 35 -35 35 -33 0
-35 -2 -35 -35 0 -33 2 -35 35 -35 l35 0 0 -70 0 -70 70 0 70 0 0 -35 c0 -33
2 -35 35 -35 33 0 35 -2 35 -35 0 -33 2 -35 35 -35 33 0 35 -2 35 -35 0 -33
-2 -35 -35 -35 -33 0 -35 -2 -35 -35 0 -33 2 -35 35 -35 33 0 35 2 35 35 l0
35 70 0 70 0 0 70 0 70 35 0 35 0 0 -105 0 -105 -35 0 c-33 0 -35 -2 -35 -35
l0 -35 -105 0 -105 0 0 -35 c0 -33 2 -35 35 -35 33 0 35 -2 35 -35 0 -33 -2
-35 -35 -35 -33 0 -35 -2 -35 -35 l0 -35 -105 0 -105 0 0 70 0 70 35 0 c33 0
35 -2 35 -35 0 -33 2 -35 35 -35 l35 0 0 105 0 105 -35 0 c-33 0 -35 -2 -35
-35 0 -33 -2 -35 -35 -35 -33 0 -35 2 -35 35 0 33 -2 35 -35 35 l-35 0 0 70 0
70 -35 0 c-33 0 -35 2 -35 35 0 33 -2 35 -35 35 -33 0 -35 2 -35 35 l0 35 -70
0 -70 0 0 -35 0 -35 70 0 70 0 0 -35 c0 -33 2 -35 35 -35 33 0 35 -2 35 -35
l0 -35 -70 0 -70 0 0 35 0 35 -70 0 -70 0 0 35 0 35 -105 0 -105 0 0 70 0 70
-35 0 -35 0 0 -70 0 -70 -35 0 -35 0 0 -70 0 -70 35 0 35 0 0 -70 0 -70 70 0
70 0 0 -35 0 -35 -70 0 -70 0 0 -35 c0 -33 2 -35 35 -35 33 0 35 -2 35 -35 l0
-35 -105 0 -105 0 0 -35 c0 -33 -2 -35 -35 -35 -33 0 -35 -2 -35 -35 0 -33 -2
-35 -35 -35 l-35 0 0 -210 0 -210 70 0 70 0 0 35 0 35 105 0 105 0 0 -35 0
-35 -70 0 -70 0 0 -35 c0 -33 -2 -35 -35 -35 -33 0 -35 -2 -35 -35 0 -33 -2
-35 -35 -35 -33 0 -35 -2 -35 -35 0 -33 2 -35 35 -35 33 0 35 2 35 35 l0 35
70 0 70 0 0 -70 0 -70 35 0 c33 0 35 -2 35 -35 0 -33 2 -35 35 -35 l35 0 0
-70 0 -70 -35 0 c-33 0 -35 2 -35 35 0 33 -2 35 -35 35 -33 0 -35 -2 -35 -35
0 -33 -2 -35 -35 -35 l-35 0 0 70 0 70 -35 0 c-33 0 -35 2 -35 35 0 33 -2 35
-35 35 l-35 0 0 -70 0 -70 35 0 c33 0 35 -2 35 -35 0 -33 -2 -35 -35 -35 -33
0 -35 -2 -35 -35 0 -33 2 -35 35 -35 33 0 35 -2 35 -35 l0 -35 -70 0 -70 0 0
70 0 70 -35 0 c-33 0 -35 2 -35 35 0 33 -2 35 -35 35 -33 0 -35 2 -35 35 0 33
2 35 35 35 33 0 35 2 35 35 0 33 2 35 35 35 33 0 35 2 35 35 0 33 -2 35 -35
35 -33 0 -35 -2 -35 -35 0 -33 -2 -35 -35 -35 l-35 0 0 70 0 70 35 0 c33 0 35
2 35 35 0 33 -2 35 -35 35 -33 0 -35 2 -35 35 0 33 2 35 35 35 33 0 35 2 35
35 0 33 -2 35 -35 35 -33 0 -35 -2 -35 -35 0 -33 -2 -35 -35 -35 -33 0 -35 -2
-35 -35 l0 -35 -70 0 -70 0 0 -35 c0 -33 2 -35 35 -35 l35 0 0 -105 0 -105 35
0 c33 0 35 -2 35 -35 0 -33 2 -35 35 -35 33 0 35 -2 35 -35 0 -33 -2 -35 -35
-35 l-35 0 0 -70 0 -70 -35 0 c-33 0 -35 -2 -35 -35 0 -33 2 -35 35 -35 33 0
35 -2 35 -35 0 -33 2 -35 35 -35 l35 0 0 70 0 70 35 0 c33 0 35 -2 35 -35 l0
-35 70 0 70 0 0 -35 c0 -33 2 -35 35 -35 33 0 35 -2 35 -35 0 -33 2 -35 35
-35 33 0 35 2 35 35 0 33 2 35 35 35 33 0 35 -2 35 -35 0 -33 2 -35 35 -35 33
0 35 2 35 35 0 33 2 35 35 35 33 0 35 2 35 35 0 33 -2 35 -35 35 l-35 0 0 70
0 70 35 0 c33 0 35 -2 35 -35 l0 -35 70 0 70 0 0 -35 c0 -33 2 -35 35 -35 33
0 35 2 35 35 0 33 2 35 35 35 33 0 35 2 35 35 0 33 2 35 35 35 33 0 35 2 35
35 0 33 2 35 35 35 33 0 35 -2 35 -35 0 -33 2 -35 35 -35 33 0 35 -2 35 -35
l0 -35 -70 0 -70 0 0 -35 c0 -33 -2 -35 -35 -35 -33 0 -35 -2 -35 -35 l0 -35
140 0 140 0 0 105 0 105 35 0 35 0 0 -70 0 -70 35 0 c33 0 35 2 35 35 0 33 2
35 35 35 l35 0 0 -70 0 -70 35 0 c33 0 35 2 35 35 0 33 2 35 35 35 33 0 35 -2
35 -35 0 -33 2 -35 35 -35 33 0 35 -2 35 -35 l0 -35 70 0 70 0 0 -35 0 -35
-70 0 -70 0 0 -35 c0 -33 2 -35 35 -35 33 0 35 -2 35 -35 0 -33 -2 -35 -35
-35 -33 0 -35 -2 -35 -35 l0 -35 70 0 70 0 0 105 0 105 35 0 c33 0 35 -2 35
-35 0 -33 2 -35 35 -35 33 0 35 -2 35 -35 0 -33 -2 -35 -35 -35 l-35 0 0 -70
0 -70 70 0 70 0 0 -35 c0 -33 -2 -35 -35 -35 -33 0 -35 -2 -35 -35 l0 -35 -70
0 -70 0 0 35 0 35 -70 0 -70 0 0 35 0 35 -70 0 -70 0 0 -35 c0 -33 2 -35 35
-35 33 0 35 -2 35 -35 0 -33 -2 -35 -35 -35 -33 0 -35 -2 -35 -35 0 -33 2 -35
35 -35 33 0 35 2 35 35 l0 35 70 0 70 0 0 -35 c0 -33 -2 -35 -35 -35 -33 0
-35 -2 -35 -35 l0 -35 -105 0 -105 0 0 -35 c0 -33 -2 -35 -35 -35 -33 0 -35
-2 -35 -35 0 -33 2 -35 35 -35 33 0 35 2 35 35 l0 35 70 0 70 0 0 -35 c0 -33
2 -35 35 -35 l35 0 0 -70 0 -70 -35 0 c-33 0 -35 -2 -35 -35 0 -33 2 -35 35
-35 33 0 35 2 35 35 l0 35 70 0 70 0 0 140 0 140 35 0 c33 0 35 -2 35 -35 0
-33 2 -35 35 -35 33 0 35 -2 35 -35 0 -33 -2 -35 -35 -35 -33 0 -35 -2 -35
-35 0 -33 2 -35 35 -35 l35 0 0 -105 0 -105 -35 0 c-33 0 -35 -2 -35 -35 0
-33 2 -35 35 -35 33 0 35 2 35 35 0 33 2 35 35 35 33 0 35 2 35 35 0 33 2 35
35 35 33 0 35 2 35 35 0 33 -2 35 -35 35 l-35 0 0 140 0 140 70 0 70 0 0 -35
c0 -33 -2 -35 -35 -35 -33 0 -35 -2 -35 -35 l0 -35 70 0 70 0 0 70 0 70 70 0
70 0 0 70 0 70 -70 0 -70 0 0 35 0 35 70 0 70 0 0 35 c0 33 2 35 35 35 33 0
35 2 35 35 l0 35 105 0 105 0 0 35 0 35 -105 0 -105 0 0 70 0 70 -35 0 c-33 0
-35 2 -35 35 l0 35 105 0 105 0 0 -70 0 -70 70 0 70 0 0 70 0 70 70 0 70 0 0
-35 c0 -33 -2 -35 -35 -35 -33 0 -35 -2 -35 -35 l0 -35 105 0 105 0 0 -70 0
-70 70 0 70 0 0 35 c0 33 -2 35 -35 35 -33 0 -35 2 -35 35 0 33 2 35 35 35 33
0 35 2 35 35 0 33 -2 35 -35 35 l-35 0 0 70 0 70 -70 0 -70 0 0 35 c0 33 -2
35 -35 35 -33 0 -35 2 -35 35 0 33 -2 35 -35 35 -33 0 -35 -2 -35 -35 0 -33
-2 -35 -35 -35 l-35 0 0 -70 0 -70 -70 0 -70 0 0 35 0 35 -70 0 -70 0 0 70 0
70 -35 0 c-33 0 -35 2 -35 35 0 33 -2 35 -35 35 -33 0 -35 2 -35 35 0 33 -2
35 -35 35 l-35 0 0 105 0 105 35 0 c33 0 35 -2 35 -35 0 -33 2 -35 35 -35 33
0 35 2 35 35 0 33 -2 35 -35 35 -33 0 -35 2 -35 35 0 33 -2 35 -35 35 -33 0
-35 2 -35 35 0 33 -2 35 -35 35 -33 0 -35 -2 -35 -35 0 -33 2 -35 35 -35 33 0
35 -2 35 -35 0 -33 -2 -35 -35 -35 l-35 0 0 -105 0 -105 35 0 35 0 0 -70 0
-70 -35 0 c-33 0 -35 2 -35 35 l0 35 -105 0 -105 0 0 35 0 35 70 0 70 0 0 35
c0 33 -2 35 -35 35 -33 0 -35 2 -35 35 0 33 2 35 35 35 33 0 35 2 35 35 0 33
-2 35 -35 35 l-35 0 0 70 0 70 -105 0 -105 0 0 35 0 35 210 0 210 0 0 35 c0
33 2 35 35 35 33 0 35 -2 35 -35 0 -33 2 -35 35 -35 33 0 35 2 35 35 0 33 2
35 35 35 33 0 35 2 35 35 0 33 -2 35 -35 35 -33 0 -35 -2 -35 -35 0 -33 -2
-35 -35 -35 -33 0 -35 2 -35 35 0 33 -2 35 -35 35 -33 0 -35 -2 -35 -35 l0
-35 -140 0 -140 0 0 35 c0 33 2 35 35 35 l35 0 0 70 0 70 70 0 70 0 0 -35 c0
-33 2 -35 35 -35 33 0 35 2 35 35 0 33 -2 35 -35 35 -33 0 -35 2 -35 35 0 33
-2 35 -35 35 -33 0 -35 2 -35 35 0 33 -2 35 -35 35 -33 0 -35 2 -35 35 0 33
-2 35 -35 35 -33 0 -35 2 -35 35 l0 35 105 0 105 0 0 -70 0 -70 35 0 c33 0 35
-2 35 -35 0 -33 2 -35 35 -35 33 0 35 2 35 35 0 33 -2 35 -35 35 -33 0 -35 2
-35 35 l0 35 70 0 70 0 0 -35 c0 -33 2 -35 35 -35 33 0 35 -2 35 -35 0 -33 -2
-35 -35 -35 -33 0 -35 -2 -35 -35 0 -33 -2 -35 -35 -35 -33 0 -35 -2 -35 -35
l0 -35 105 0 105 0 0 35 c0 33 -2 35 -35 35 -33 0 -35 2 -35 35 l0 35 105 0
105 0 0 35 0 35 -105 0 -105 0 0 105 0 105 70 0 70 0 0 -70 0 -70 70 0 70 0 0
35 c0 33 -2 35 -35 35 -33 0 -35 2 -35 35 0 33 -2 35 -35 35 -33 0 -35 2 -35
35 0 33 2 35 35 35 33 0 35 2 35 35 0 33 2 35 35 35 33 0 35 2 35 35 0 33 -2
35 -35 35 -33 0 -35 2 -35 35 0 33 -2 35 -35 35 -33 0 -35 2 -35 35 0 33 2 35
35 35 33 0 35 2 35 35 0 33 2 35 35 35 33 0 35 -2 35 -35 0 -33 2 -35 35 -35
l35 0 0 -140 0 -140 -35 0 c-33 0 -35 -2 -35 -35 0 -33 2 -35 35 -35 33 0 35
-2 35 -35 0 -33 2 -35 35 -35 33 0 35 2 35 35 0 33 -2 35 -35 35 -33 0 -35 2
-35 35 0 33 2 35 35 35 33 0 35 2 35 35 0 33 2 35 35 35 33 0 35 -2 35 -35 l0
-35 70 0 70 0 0 -35 c0 -33 2 -35 35 -35 33 0 35 2 35 35 0 33 -2 35 -35 35
-33 0 -35 2 -35 35 0 33 2 35 35 35 33 0 35 2 35 35 0 33 -2 35 -35 35 -33 0
-35 2 -35 35 0 33 2 35 35 35 33 0 35 2 35 35 0 33 -2 35 -35 35 -33 0 -35 2
-35 35 l0 35 -70 0 -70 0 0 -35 0 -35 70 0 70 0 0 -35 c0 -33 -2 -35 -35 -35
-33 0 -35 -2 -35 -35 0 -33 2 -35 35 -35 33 0 35 -2 35 -35 l0 -35 -70 0 -70
0 0 35 c0 33 -2 35 -35 35 l-35 0 0 105 0 105 -35 0 c-33 0 -35 2 -35 35 l0
35 -70 0 -70 0 0 35 c0 33 -2 35 -35 35 -33 0 -35 -2 -35 -35 0 -33 -2 -35
-35 -35 -33 0 -35 2 -35 35 0 33 -2 35 -35 35 -33 0 -35 -2 -35 -35 0 -33 -2
-35 -35 -35 -33 0 -35 2 -35 35 0 33 -2 35 -35 35 -33 0 -35 2 -35 35 l0 35
105 0 105 0 0 35 c0 33 2 35 35 35 33 0 35 -2 35 -35 0 -33 2 -35 35 -35 33 0
35 2 35 35 0 33 2 35 35 35 33 0 35 2 35 35 0 33 -2 35 -35 35 -33 0 -35 -2
-35 -35 0 -33 -2 -35 -35 -35 -33 0 -35 2 -35 35 0 33 -2 35 -35 35 -33 0 -35
-2 -35 -35 0 -33 -2 -35 -35 -35 -33 0 -35 2 -35 35 0 33 -2 35 -35 35 -33 0
-35 2 -35 35 0 33 2 35 35 35 33 0 35 2 35 35 0 33 2 35 35 35 33 0 35 2 35
35 0 33 -2 35 -35 35 -33 0 -35 2 -35 35 0 33 -2 35 -35 35 -33 0 -35 2 -35
35 0 33 -2 35 -35 35 l-35 0 0 70 0 70 -35 0 -35 0 0 -70 0 -70 -35 0 c-33 0
-35 2 -35 35 0 33 -2 35 -35 35 -33 0 -35 2 -35 35 0 33 -2 35 -35 35 -33 0
-35 -2 -35 -35z m70 -70 c0 -33 -2 -35 -35 -35 -33 0 -35 2 -35 35 0 33 2 35
35 35 33 0 35 -2 35 -35z m280 -140 c0 -33 2 -35 35 -35 33 0 35 -2 35 -35 0
-33 -2 -35 -35 -35 -33 0 -35 -2 -35 -35 0 -33 -2 -35 -35 -35 -33 0 -35 -2
-35 -35 0 -33 2 -35 35 -35 33 0 35 -2 35 -35 0 -33 -2 -35 -35 -35 -33 0 -35
-2 -35 -35 0 -33 -2 -35 -35 -35 -33 0 -35 -2 -35 -35 0 -33 -2 -35 -35 -35
-33 0 -35 2 -35 35 0 33 -2 35 -35 35 -33 0 -35 -2 -35 -35 l0 -35 -70 0 -70
0 0 -35 c0 -33 -2 -35 -35 -35 -33 0 -35 -2 -35 -35 0 -33 2 -35 35 -35 33 0
35 -2 35 -35 0 -33 2 -35 35 -35 33 0 35 -2 35 -35 0 -33 -2 -35 -35 -35 -33
0 -35 -2 -35 -35 l0 -35 -105 0 -105 0 0 -35 c0 -33 -2 -35 -35 -35 -33 0 -35
2 -35 35 0 33 2 35 35 35 33 0 35 2 35 35 0 33 2 35 35 35 l35 0 0 140 0 140
70 0 70 0 0 35 c0 33 -2 35 -35 35 -33 0 -35 2 -35 35 l0 35 -70 0 -70 0 0
-35 c0 -33 -2 -35 -35 -35 -33 0 -35 -2 -35 -35 0 -33 -2 -35 -35 -35 -33 0
-35 -2 -35 -35 l0 -35 -70 0 -70 0 0 35 0 35 70 0 70 0 0 35 c0 33 2 35 35 35
33 0 35 2 35 35 0 33 -2 35 -35 35 -33 0 -35 2 -35 35 0 33 2 35 35 35 33 0
35 2 35 35 0 33 2 35 35 35 33 0 35 -2 35 -35 l0 -35 70 0 70 0 0 -35 c0 -33
2 -35 35 -35 33 0 35 -2 35 -35 l0 -35 70 0 70 0 0 70 0 70 -35 0 -35 0 0 70
0 70 105 0 105 0 0 70 0 70 70 0 70 0 0 -35z m-1750 -595 l0 -70 35 0 c33 0
35 2 35 35 0 33 2 35 35 35 33 0 35 -2 35 -35 0 -33 2 -35 35 -35 33 0 35 -2
35 -35 0 -33 2 -35 35 -35 33 0 35 2 35 35 0 33 2 35 35 35 33 0 35 -2 35 -35
0 -33 2 -35 35 -35 l35 0 0 -70 0 -70 70 0 70 0 0 -70 0 -70 35 0 c33 0 35 -2
35 -35 0 -33 2 -35 35 -35 33 0 35 -2 35 -35 0 -33 -2 -35 -35 -35 -33 0 -35
2 -35 35 0 33 -2 35 -35 35 -35 0 -35 0 -35 -45 l0 -45 70 0 c40 0 70 4 70 10
0 6 30 10 70 10 57 0 70 -3 70 -16 0 -18 38 -53 58 -54 7 0 12 -14 12 -35 0
-33 2 -35 35 -35 l35 0 0 70 0 70 -35 0 c-33 0 -35 2 -35 35 0 33 -2 35 -35
35 -33 0 -35 2 -35 35 0 33 2 35 35 35 33 0 35 2 35 35 0 33 2 35 35 35 33 0
35 -2 35 -35 0 -33 -2 -35 -35 -35 -33 0 -35 -2 -35 -35 0 -33 2 -35 35 -35
33 0 35 -2 35 -35 0 -33 2 -35 35 -35 l35 0 0 -70 0 -70 35 0 c33 0 35 -2 35
-35 0 -33 2 -35 35 -35 33 0 35 -2 35 -35 l0 -35 70 0 70 0 0 -35 0 -35 -70 0
-70 0 0 35 0 35 -105 0 -105 0 0 -70 0 -70 35 0 c33 0 35 -2 35 -35 0 -33 2
-35 35 -35 l35 0 0 -140 0 -140 35 0 35 0 0 70 0 70 70 0 70 0 0 -35 c0 -33 2
-35 35 -35 33 0 35 -2 35 -35 0 -33 -2 -35 -35 -35 l-35 0 0 -70 0 -70 -35 0
-35 0 0 70 0 70 -35 0 c-33 0 -35 -2 -35 -35 0 -33 -2 -35 -35 -35 -33 0 -35
-2 -35 -35 0 -33 2 -35 35 -35 l35 0 0 -70 0 -70 35 0 c33 0 35 2 35 35 0 33
2 35 35 35 33 0 35 -2 35 -35 0 -33 -2 -35 -35 -35 -33 0 -35 -2 -35 -35 0
-33 -2 -35 -35 -35 -33 0 -35 -2 -35 -35 0 -33 2 -35 35 -35 33 0 35 -2 35
-35 0 -33 2 -35 35 -35 33 0 35 -2 35 -35 0 -33 -2 -35 -35 -35 -33 0 -35 2
-35 35 0 33 -2 35 -35 35 -33 0 -35 2 -35 35 l0 35 -70 0 -70 0 0 35 0 35 70
0 70 0 0 35 c0 33 -2 35 -35 35 l-35 0 0 70 0 70 -35 0 -35 0 0 -70 0 -70
-105 0 -105 0 0 35 c0 33 2 35 35 35 l35 0 0 105 0 105 70 0 70 0 0 35 c0 33
-2 35 -35 35 l-35 0 0 70 0 70 35 0 c33 0 35 2 35 35 l0 35 -69 0 -70 0 -3 38
c-2 20 -2 -24 1 -99 l4 -137 -37 -36 c-29 -30 -36 -44 -36 -76 l0 -40 -70 0
-70 0 0 35 c0 33 -2 35 -35 35 l-35 0 0 -105 0 -105 -35 0 c-33 0 -35 2 -35
35 0 33 -2 35 -35 35 -33 0 -35 2 -35 35 0 33 -2 35 -35 35 -33 0 -35 -2 -35
-35 0 -33 -2 -35 -35 -35 -33 0 -35 2 -35 35 0 33 -2 35 -35 35 -33 0 -35 -2
-35 -35 l0 -35 -70 0 -70 0 0 -35 c0 -33 -2 -35 -35 -35 -33 0 -35 2 -35 35 0
33 2 35 35 35 33 0 35 2 35 35 0 33 2 35 35 35 33 0 35 2 35 34 0 19 6 37 13
39 8 4 7 6 -4 6 -27 2 -60 47 -66 90 -5 40 -7 41 -44 41 -38 0 -39 -1 -39 -35
0 -33 2 -35 35 -35 33 0 35 -2 35 -35 0 -33 -2 -35 -35 -35 -33 0 -35 2 -35
35 0 33 -2 35 -35 35 -33 0 -35 2 -35 35 0 33 2 35 35 35 l35 0 0 70 0 70 -35
0 c-33 0 -35 2 -35 35 0 33 2 35 35 35 33 0 35 -2 35 -35 0 -33 2 -35 34 -35
33 0 35 -2 38 -37 3 -36 3 144 -1 215 -1 30 -3 32 -36 32 -33 0 -35 2 -35 35
0 33 -2 35 -35 35 -33 0 -35 -2 -35 -35 0 -33 -2 -35 -35 -35 l-35 0 0 70 0
70 -105 0 -105 0 0 35 c0 33 2 35 35 35 33 0 35 2 35 35 0 33 2 35 35 35 33 0
35 -2 35 -35 l0 -35 70 0 70 0 0 -35 c0 -33 2 -35 35 -35 l35 0 0 70 0 70 35
0 c33 0 35 2 35 35 l0 35 -70 0 -70 0 0 -35 c0 -33 -2 -35 -35 -35 -33 0 -35
2 -35 35 0 33 2 35 35 35 33 0 35 2 35 35 0 33 2 35 35 35 l35 0 0 70 0 70 35
0 c33 0 35 2 35 35 0 33 2 35 35 35 33 0 35 2 35 35 0 33 -2 35 -35 35 -33 0
-35 2 -35 35 0 33 -2 35 -35 35 -33 0 -35 -2 -35 -35 0 -33 -2 -35 -35 -35
-33 0 -35 2 -35 35 0 33 -2 35 -35 35 l-35 0 0 70 0 70 35 0 35 0 0 -70z
m1750 35 c0 -33 -2 -35 -35 -35 l-35 0 0 -105 0 -105 35 0 c33 0 35 2 35 35 0
33 2 35 35 35 33 0 35 2 35 35 0 33 2 35 35 35 33 0 35 2 35 35 0 33 -2 35
-35 35 -33 0 -35 2 -35 35 0 33 2 35 35 35 33 0 35 -2 35 -35 0 -33 2 -35 35
-35 33 0 35 2 35 35 0 33 2 35 35 35 33 0 35 -2 35 -35 0 -33 -2 -35 -35 -35
-33 0 -35 -2 -35 -35 0 -33 -2 -35 -35 -35 -33 0 -35 -2 -35 -35 0 -33 -2 -35
-35 -35 -33 0 -35 -2 -35 -35 0 -33 -2 -35 -35 -35 -33 0 -35 -2 -35 -35 0
-33 -2 -35 -35 -35 -33 0 -35 -2 -35 -35 0 -33 2 -35 35 -35 l35 0 0 -70 0
-70 -105 0 -105 0 0 35 c0 33 -2 35 -35 35 l-35 0 0 70 0 70 -35 0 c-33 0 -35
2 -35 35 l0 35 105 0 105 0 0 70 0 70 -35 0 c-33 0 -35 -2 -35 -35 0 -33 -2
-35 -35 -35 l-35 0 0 70 0 70 -35 0 c-33 0 -35 2 -35 35 l0 35 175 0 175 0 0
-35z m-1190 -210 c0 -33 -2 -35 -35 -35 -33 0 -35 2 -35 35 0 33 2 35 35 35
33 0 35 -2 35 -35z m1470 -70 c0 -33 -2 -35 -35 -35 -33 0 -35 -2 -35 -35 l0
-35 -70 0 -70 0 0 35 c0 33 2 35 35 35 33 0 35 2 35 35 l0 35 70 0 70 0 0 -35z
m-700 -70 c0 -33 2 -35 35 -35 33 0 35 -2 35 -35 0 -33 -2 -35 -35 -35 -33 0
-35 -2 -35 -35 0 -33 -2 -35 -35 -35 -33 0 -35 -2 -35 -35 0 -33 2 -35 35 -35
33 0 35 -2 35 -35 0 -33 2 -35 35 -35 l35 0 0 -70 0 -70 -70 0 -70 0 0 35 c0
33 -2 35 -35 35 -33 0 -35 2 -35 35 0 33 -2 35 -35 35 l-35 0 0 70 0 70 -35 0
c-33 0 -35 2 -35 35 l0 35 70 0 70 0 0 -35 c0 -33 2 -35 35 -35 33 0 35 2 35
35 0 33 2 35 35 35 33 0 35 2 35 35 l0 35 -70 0 -70 0 0 35 0 35 70 0 70 0 0
-35z m-1540 -490 c0 -33 -2 -35 -35 -35 -33 0 -35 2 -35 35 0 33 2 35 35 35
33 0 35 -2 35 -35z m-280 -280 c0 -33 -2 -35 -35 -35 -33 0 -35 2 -35 35 0 33
2 35 35 35 33 0 35 -2 35 -35z m0 -210 c0 -33 -2 -35 -35 -35 -33 0 -35 2 -35
35 0 33 2 35 35 35 33 0 35 -2 35 -35z m350 -210 c0 -33 2 -35 35 -35 33 0 35
2 35 35 0 33 2 35 35 35 33 0 35 -2 35 -35 0 -33 -2 -35 -35 -35 -33 0 -35 -2
-35 -35 0 -33 -2 -35 -35 -35 l-35 0 0 -70 0 -70 -35 0 -35 0 0 70 0 70 35 0
c33 0 35 2 35 35 0 33 -2 35 -35 35 -33 0 -35 2 -35 35 0 33 2 35 35 35 33 0
35 -2 35 -35z m910 0 c0 -33 -2 -35 -35 -35 -33 0 -35 2 -35 35 0 33 2 35 35
35 33 0 35 -2 35 -35z m-490 -70 c0 -33 -2 -35 -35 -35 -33 0 -35 2 -35 35 0
33 2 35 35 35 33 0 35 -2 35 -35z m1260 -70 c0 -33 2 -35 35 -35 33 0 35 -2
35 -35 0 -33 2 -35 35 -35 l35 0 0 70 0 70 35 0 35 0 0 -105 0 -105 -35 0
c-33 0 -35 -2 -35 -35 0 -33 2 -35 35 -35 l35 0 0 -140 0 -140 -70 0 -70 0 0
35 c0 33 -2 35 -35 35 l-35 0 0 -70 0 -70 -35 0 c-33 0 -35 -2 -35 -35 l0 -35
70 0 70 0 0 -35 0 -35 -140 0 -140 0 0 -35 c0 -33 -2 -35 -35 -35 -33 0 -35 2
-35 35 0 33 2 35 35 35 33 0 35 2 35 35 0 33 2 35 35 35 33 0 35 2 35 35 0 33
2 35 35 35 33 0 35 2 35 35 0 33 -2 35 -35 35 -33 0 -35 2 -35 35 0 33 -2 35
-35 35 -33 0 -35 2 -35 35 0 33 2 35 35 35 l35 0 0 70 0 70 70 0 70 0 0 -70 0
-70 35 0 c33 0 35 2 35 35 0 33 2 35 35 35 33 0 35 2 35 35 0 33 -2 35 -35 35
l-35 0 0 70 0 70 -35 0 c-33 0 -35 -2 -35 -35 l0 -35 -70 0 -70 0 0 105 0 105
70 0 70 0 0 -35z m770 -140 c0 -33 2 -35 35 -35 33 0 35 -2 35 -35 0 -33 2
-35 35 -35 33 0 35 -2 35 -35 0 -33 -2 -35 -35 -35 -33 0 -35 2 -35 35 0 33
-2 35 -35 35 -33 0 -35 2 -35 35 0 33 -2 35 -35 35 -33 0 -35 2 -35 35 0 33 2
35 35 35 33 0 35 -2 35 -35z m-1120 -630 c0 -33 -2 -35 -35 -35 -33 0 -35 -2
-35 -35 0 -33 -2 -35 -35 -35 -33 0 -35 2 -35 35 0 33 2 35 35 35 33 0 35 2
35 35 0 33 2 35 35 35 33 0 35 -2 35 -35z"/>
<path d="M3730 4725 c0 -33 -2 -35 -35 -35 l-35 0 0 -105 0 -105 35 0 35 0 0
105 0 105 35 0 c33 0 35 2 35 35 0 33 -2 35 -35 35 -33 0 -35 -2 -35 -35z"/>
<path d="M3170 4585 c0 -33 2 -35 35 -35 33 0 35 2 35 35 0 33 -2 35 -35 35
-33 0 -35 -2 -35 -35z"/>
<path d="M3380 4165 c0 -33 2 -35 35 -35 33 0 35 2 35 35 0 33 -2 35 -35 35
-33 0 -35 -2 -35 -35z"/>
<path d="M2400 4095 c0 -33 2 -35 35 -35 33 0 35 2 35 35 0 33 -2 35 -35 35
-33 0 -35 -2 -35 -35z"/>
<path d="M2330 3955 c0 -33 2 -35 35 -35 l35 0 0 -70 0 -70 -35 0 c-33 0 -35
-2 -35 -35 l0 -35 105 0 c63 0 105 -4 105 -10 0 -5 16 -10 35 -10 35 0 35 0
35 45 0 45 0 45 35 45 33 0 35 2 35 35 0 33 -2 35 -35 35 -33 0 -35 2 -35 35
0 33 -2 35 -35 35 -33 0 -35 2 -35 35 0 33 -2 35 -35 35 -33 0 -35 -2 -35 -35
0 -33 -2 -35 -35 -35 -33 0 -35 2 -35 35 0 33 -2 35 -35 35 -33 0 -35 -2 -35
-35z m280 -140 c0 -33 -2 -35 -35 -35 -33 0 -35 2 -35 35 0 33 2 35 35 35 33
0 35 -2 35 -35z"/>
<path d="M2525 3534 c-11 -3 -33 -10 -50 -17 -16 -6 -36 -12 -44 -12 -24 0
-65 -94 -69 -160 -4 -64 24 -161 54 -186 17 -14 54 -20 54 -9 0 4 29 6 64 6
35 -1 62 -5 59 -10 -3 -5 0 -6 8 -4 8 3 28 -1 46 -9 45 -18 104 -16 160 6 26
10 53 17 58 15 13 -5 37 45 28 59 -3 6 -1 7 4 4 12 -7 33 65 33 110 0 51 -11
75 -31 70 -11 -3 -19 -2 -19 3 0 4 -19 10 -42 14 -22 4 -46 10 -52 14 -6 3
-17 7 -25 8 -7 2 -20 12 -28 23 -34 49 -147 90 -208 75z m183 -90 c45 -26 66
-63 66 -115 0 -60 -24 -96 -80 -120 -36 -17 -50 -18 -83 -9 -108 29 -133 176
-42 237 40 27 101 30 139 7z"/>
<path d="M3023 3465 c0 -22 2 -30 4 -17 2 12 2 30 0 40 -3 9 -5 -1 -4 -23z"/>
<path d="M2470 2905 c0 -33 2 -35 35 -35 33 0 35 2 35 35 0 33 -2 35 -35 35
-33 0 -35 -2 -35 -35z"/>
<path d="M2610 2905 c0 -33 2 -35 35 -35 33 0 35 2 35 35 0 33 -2 35 -35 35
-33 0 -35 -2 -35 -35z"/>
<path d="M3170 2905 c0 -33 2 -35 35 -35 33 0 35 2 35 35 0 33 -2 35 -35 35
-33 0 -35 -2 -35 -35z"/>
<path d="M3660 3885 c0 -33 2 -35 35 -35 33 0 35 2 35 35 0 33 -2 35 -35 35
-33 0 -35 -2 -35 -35z"/>
<path d="M3380 3605 c0 -33 2 -35 35 -35 33 0 35 2 35 35 0 33 -2 35 -35 35
-33 0 -35 -2 -35 -35z"/>
<path d="M3590 2555 c0 -33 2 -35 35 -35 33 0 35 2 35 35 0 33 -2 35 -35 35
-33 0 -35 -2 -35 -35z"/>
<path d="M3520 2205 c0 -33 2 -35 35 -35 33 0 35 2 35 35 0 33 -2 35 -35 35
-33 0 -35 -2 -35 -35z"/>
<path d="M3730 2205 c0 -33 2 -35 35 -35 33 0 35 2 35 35 0 33 -2 35 -35 35
-33 0 -35 -2 -35 -35z"/>
<path d="M1910 5005 c0 -33 2 -35 35 -35 33 0 35 2 35 35 0 33 -2 35 -35 35
-33 0 -35 -2 -35 -35z"/>
<path d="M1840 4865 c0 -33 2 -35 35 -35 33 0 35 2 35 35 0 33 -2 35 -35 35
-33 0 -35 -2 -35 -35z"/>
<path d="M4080 4760 l0 -70 35 0 35 0 0 70 0 70 -35 0 -35 0 0 -70z"/>
<path d="M1350 4690 l0 -70 70 0 70 0 0 -35 0 -35 -70 0 -70 0 0 -70 0 -70
-35 0 c-33 0 -35 2 -35 35 0 33 -2 35 -35 35 l-35 0 0 -105 0 -105 35 0 c33 0
35 2 35 35 0 33 2 35 35 35 33 0 35 2 35 35 l0 35 70 0 70 0 0 -35 c0 -33 2
-35 35 -35 33 0 35 2 35 35 0 33 2 35 35 35 33 0 35 2 35 35 0 33 2 35 35 35
33 0 35 2 35 35 0 33 2 35 35 35 33 0 35 2 35 35 0 33 2 35 35 35 l35 0 0 70
0 70 -35 0 -35 0 0 -70 0 -70 -35 0 -35 0 0 70 0 70 -105 0 -105 0 0 -35 c0
-33 -2 -35 -35 -35 -33 0 -35 2 -35 35 0 33 -2 35 -35 35 l-35 0 0 -70z m210
-35 c0 -33 2 -35 35 -35 l35 0 0 -70 0 -70 -35 0 -35 0 0 70 0 70 -35 0 c-33
0 -35 2 -35 35 0 33 2 35 35 35 33 0 35 -2 35 -35z"/>
<path d="M4220 4725 c0 -33 2 -35 35 -35 33 0 35 2 35 35 0 33 -2 35 -35 35
-33 0 -35 -2 -35 -35z"/>
<path d="M1210 4620 l0 -70 35 0 35 0 0 70 0 70 -35 0 -35 0 0 -70z"/>
<path d="M930 4305 c0 -33 -2 -35 -35 -35 l-35 0 0 -70 0 -70 105 0 105 0 0
35 c0 33 2 35 35 35 33 0 35 2 35 35 l0 35 -70 0 -70 0 0 35 c0 33 -2 35 -35
35 -33 0 -35 -2 -35 -35z m70 -70 c0 -33 -2 -35 -35 -35 -33 0 -35 2 -35 35 0
33 2 35 35 35 33 0 35 -2 35 -35z"/>
<path d="M2750 4270 l0 -70 35 0 35 0 0 70 0 70 -35 0 -35 0 0 -70z"/>
<path d="M860 4025 l0 -35 105 0 105 0 0 35 0 35 -105 0 -105 0 0 -35z"/>
<path d="M1910 3955 c0 -33 2 -35 35 -35 33 0 35 2 35 35 0 33 -2 35 -35 35
-33 0 -35 -2 -35 -35z"/>
<path d="M1280 3885 c0 -33 2 -35 35 -35 33 0 35 2 35 35 0 33 -2 35 -35 35
-33 0 -35 -2 -35 -35z"/>
<path d="M1420 3885 c0 -33 2 -35 35 -35 33 0 35 2 35 35 0 33 -2 35 -35 35
-33 0 -35 -2 -35 -35z"/>
<path d="M4430 3815 c0 -33 2 -35 35 -35 33 0 35 2 35 35 0 33 -2 35 -35 35
-33 0 -35 -2 -35 -35z"/>
<path d="M1630 3570 l0 -70 -35 0 c-33 0 -35 -2 -35 -35 l0 -35 70 0 70 0 0
105 0 105 -35 0 -35 0 0 -70z"/>
<path d="M4080 3115 c0 -33 2 -35 35 -35 33 0 35 -2 35 -35 0 -33 2 -35 35
-35 33 0 35 -2 35 -35 0 -33 2 -35 35 -35 33 0 35 2 35 35 0 33 2 35 35 35 33
0 35 2 35 35 l0 35 -105 0 -105 0 0 35 c0 33 -2 35 -35 35 -33 0 -35 -2 -35
-35z"/>
<path d="M930 3045 c0 -33 2 -35 35 -35 33 0 35 2 35 35 0 33 -2 35 -35 35
-33 0 -35 -2 -35 -35z"/>
<path d="M1210 2905 c0 -33 2 -35 35 -35 33 0 35 2 35 35 0 33 -2 35 -35 35
-33 0 -35 -2 -35 -35z"/>
<path d="M1000 2835 c0 -33 -2 -35 -35 -35 -33 0 -35 -2 -35 -35 l0 -35 105 0
105 0 0 70 0 70 -70 0 -70 0 0 -35z"/>
<path d="M1280 2765 c0 -33 2 -35 35 -35 33 0 35 -2 35 -35 0 -33 2 -35 35
-35 33 0 35 2 35 35 0 33 2 35 35 35 33 0 35 2 35 35 0 33 -2 35 -35 35 -33 0
-35 -2 -35 -35 0 -33 -2 -35 -35 -35 -33 0 -35 2 -35 35 0 33 -2 35 -35 35
-33 0 -35 -2 -35 -35z"/>
<path d="M790 2520 l0 -70 35 0 35 0 0 70 0 70 -35 0 -35 0 0 -70z"/>
<path d="M930 2485 c0 -33 2 -35 35 -35 33 0 35 2 35 35 0 33 -2 35 -35 35
-33 0 -35 -2 -35 -35z"/>
<path d="M2960 2275 c0 -33 -2 -35 -35 -35 l-35 0 0 -70 0 -70 -70 0 -70 0 0
35 0 35 -70 0 -70 0 0 -35 c0 -33 2 -35 35 -35 33 0 35 -2 35 -35 l0 -35 70 0
70 0 0 -35 c0 -33 2 -35 35 -35 33 0 35 -2 35 -35 0 -33 2 -35 35 -35 l35 0 0
140 0 140 70 0 70 0 0 70 0 70 -70 0 -70 0 0 -35z"/>
<path d="M4080 2030 l0 -70 -70 0 -70 0 0 -35 0 -35 70 0 70 0 0 35 c0 33 2
35 35 35 33 0 35 -2 35 -35 0 -33 2 -35 35 -35 33 0 35 2 35 35 0 33 -2 35
-35 35 -33 0 -35 2 -35 35 0 33 2 35 35 35 33 0 35 2 35 35 l0 35 -70 0 -70 0
0 -70z"/>
<path d="M4500 1960 l0 -140 35 0 35 0 0 140 0 140 -35 0 -35 0 0 -140z"/>
<path d="M4570 1505 c0 -33 2 -35 35 -35 33 0 35 2 35 35 0 33 -2 35 -35 35
-33 0 -35 -2 -35 -35z"/>
<path d="M2610 5005 c0 -33 2 -35 35 -35 33 0 35 2 35 35 0 33 -2 35 -35 35
-33 0 -35 -2 -35 -35z"/>
<path d="M930 3325 c0 -33 2 -35 35 -35 33 0 35 2 35 35 0 33 -2 35 -35 35
-33 0 -35 -2 -35 -35z"/>
<path d="M4290 3325 c0 -33 2 -35 35 -35 33 0 35 2 35 35 0 33 -2 35 -35 35
-33 0 -35 -2 -35 -35z"/>
<path d="M2610 1645 c0 -33 2 -35 35 -35 33 0 35 2 35 35 0 33 -2 35 -35 35
-33 0 -35 -2 -35 -35z"/>
<path d="M4290 1645 c0 -33 2 -35 35 -35 33 0 35 2 35 35 0 33 -2 35 -35 35
-33 0 -35 -2 -35 -35z"/>
<path d="M4290 5215 l0 -245 245 0 245 0 0 245 0 245 -245 0 -245 0 0 -245z
m420 0 l0 -175 -175 0 -175 0 0 175 0 175 175 0 175 0 0 -175z"/>
<path d="M4430 5215 l0 -105 105 0 105 0 0 105 0 105 -105 0 -105 0 0 -105z"/>
<path d="M1280 1855 c0 -33 2 -35 35 -35 33 0 35 2 35 35 0 33 -2 35 -35 35
-33 0 -35 -2 -35 -35z"/>
<path d="M930 1785 c0 -33 2 -35 35 -35 33 0 35 2 35 35 0 33 -2 35 -35 35
-33 0 -35 -2 -35 -35z"/>
<path d="M1140 1785 c0 -33 -2 -35 -35 -35 -33 0 -35 -2 -35 -35 l0 -35 70 0
70 0 0 70 0 70 -35 0 c-33 0 -35 -2 -35 -35z"/>
<path d="M510 1435 l0 -245 245 0 245 0 0 245 0 245 -245 0 -245 0 0 -245z
m420 0 l0 -175 -175 0 -175 0 0 175 0 175 175 0 175 0 0 -175z"/>
<path d="M650 1435 l0 -105 105 0 105 0 0 105 0 105 -105 0 -105 0 0 -105z"/>
<path d="M1070 1435 l0 -105 105 0 105 0 0 35 0 35 -70 0 -70 0 0 35 c0 33 2
35 35 35 33 0 35 2 35 35 l0 35 -70 0 -70 0 0 -105z"/>
<path d="M1630 1225 c0 -33 2 -35 35 -35 33 0 35 2 35 35 0 33 -2 35 -35 35
-33 0 -35 -2 -35 -35z"/>
<path d="M2120 1225 c0 -33 2 -35 35 -35 33 0 35 2 35 35 0 33 -2 35 -35 35
-33 0 -35 -2 -35 -35z"/>
<path d="M2283 349 c-31 -11 -43 -40 -43 -106 0 -78 19 -105 68 -101 46 4 62
32 62 108 0 81 -34 119 -87 99z m61 -69 c3 -23 2 -59 -4 -81 -9 -32 -15 -39
-36 -39 -30 0 -44 31 -44 96 0 89 70 109 84 24z"/>
<path d="M2970 352 c-46 -14 -63 -58 -34 -86 14 -15 14 -17 0 -32 -38 -37 -8
-94 48 -94 56 0 87 58 51 94 -14 14 -14 18 1 41 15 23 15 27 1 49 -17 25 -42
36 -67 28z m48 -48 c4 -27 -21 -47 -48 -39 -20 6 -28 44 -13 59 15 15 58 1 61
-20z m-4 -80 c19 -18 19 -20 6 -45 -13 -23 -52 -25 -70 -4 -10 12 -10 21 -2
40 13 29 43 33 66 9z"/>
<path d="M1440 245 l0 -105 50 0 c77 0 111 45 75 97 -10 14 -12 24 -5 28 5 3
10 19 10 35 0 36 -23 50 -84 50 l-46 0 0 -105z m104 62 c14 -23 -15 -47 -56
-47 -25 0 -28 3 -28 36 0 34 1 35 36 32 22 -2 41 -10 48 -21z m-10 -73 c19 -7
21 -45 4 -62 -7 -7 -27 -12 -45 -12 -32 0 -33 1 -33 40 0 38 2 40 29 40 16 0
36 -3 45 -6z"/>
<path d="M1641 324 c-32 -40 -29 -126 4 -159 32 -33 83 -34 113 -2 23 24 29
47 13 47 -5 0 -16 -11 -25 -25 -16 -25 -49 -32 -74 -17 -30 19 -36 116 -9 150
15 19 65 15 79 -8 12 -19 38 -28 38 -12 0 4 -7 18 -16 30 -23 34 -95 31 -123
-4z"/>
<path d="M1848 252 c-42 -109 -43 -112 -27 -112 5 0 15 14 20 30 10 27 15 30
55 30 41 0 46 -3 55 -30 6 -16 17 -30 25 -30 8 0 14 1 14 3 -1 21 -81 203 -91
205 -9 1 -27 -32 -51 -96z m67 22 c21 -50 20 -54 -19 -54 l-35 0 16 45 c8 25
17 45 19 45 2 0 11 -16 19 -36z"/>
<path d="M2448 338 c-35 -12 -37 -32 -3 -24 l25 6 0 -90 c0 -73 3 -90 15 -90
12 0 15 18 15 105 0 112 0 113 -52 93z"/>
<path d="M2597 332 c-21 -23 -22 -46 -1 -66 14 -15 14 -17 0 -32 -38 -37 -8
-94 48 -94 56 0 87 58 51 94 -14 14 -14 18 1 41 15 23 15 27 0 50 -20 31 -74
34 -99 7z m81 -28 c4 -27 -21 -47 -48 -39 -20 6 -28 44 -13 59 15 15 58 1 61
-20z m-4 -80 c19 -18 19 -20 6 -45 -13 -23 -52 -25 -70 -4 -10 12 -10 21 -2
40 13 29 43 33 66 9z"/>
<path d="M2788 338 c-35 -12 -37 -32 -3 -24 l25 6 0 -90 c0 -73 3 -90 15 -90
12 0 15 18 15 105 0 112 0 113 -52 93z"/>
<path d="M3107 332 c-21 -23 -22 -46 -1 -66 14 -15 14 -17 0 -32 -38 -37 -8
-94 48 -94 56 0 87 58 51 94 -14 14 -14 18 1 41 15 23 15 27 0 50 -20 31 -74
34 -99 7z m81 -28 c4 -27 -21 -47 -48 -39 -20 6 -28 44 -13 59 15 15 58 1 61
-20z m-4 -80 c19 -18 19 -20 6 -45 -13 -23 -52 -25 -70 -4 -10 12 -10 21 -2
40 13 29 43 33 66 9z"/>
<path d="M3296 278 c-25 -39 -46 -75 -46 -80 0 -4 23 -8 50 -8 47 0 50 -2 50
-25 0 -14 5 -25 10 -25 6 0 10 11 10 25 0 16 6 25 15 25 8 0 15 5 15 10 0 6
-7 10 -15 10 -12 0 -15 14 -15 70 0 92 -14 91 -74 -2z m51 -65 c-3 -2 -19 -3
-36 -1 l-30 3 32 50 32 50 3 -49 c2 -26 1 -50 -1 -53z"/>
<path d="M3468 338 c-35 -12 -37 -32 -3 -24 l25 6 0 -90 c0 -73 3 -90 15 -90
12 0 15 18 15 105 0 112 0 113 -52 93z"/>
<path d="M3616 328 c-22 -31 -21 -136 0 -166 12 -18 24 -22 52 -20 46 4 62 32
62 108 0 71 -19 100 -65 100 -24 0 -39 -7 -49 -22z m87 -45 c5 -26 4 -58 -3
-83 -9 -33 -15 -40 -36 -40 -29 0 -44 31 -44 91 0 57 15 81 48 77 22 -3 28
-10 35 -45z"/>
<path d="M3780 331 c-5 -11 -10 -36 -10 -55 0 -46 37 -75 75 -58 17 8 25 8 25
1 0 -22 -21 -47 -45 -53 -24 -6 -36 -26 -16 -26 71 0 115 105 76 180 -13 26
-21 30 -55 30 -29 0 -42 -5 -50 -19z m78 -13 c19 -19 15 -66 -7 -78 -25 -13
-27 -13 -45 6 -30 29 -14 84 24 84 9 0 21 -5 28 -12z"/>
<path d="M2080 230 c0 -5 16 -10 35 -10 19 0 35 5 35 10 0 6 -16 10 -35 10
-19 0 -35 -4 -35 -10z"/>
</g>
</svg>
